<svg width="700" height="700" viewBox="0 0 700 700" fill="none" xmlns="http://www.w3.org/2000/svg">
<path d="M621.488 449.27H368.444C363.919 449.27 360.237 445.588 360.237 441.063V72.4808C360.237 67.956 363.919 64.274 368.444 64.274H621.488C626.013 64.274 629.695 67.9546 629.695 72.4808V441.063C629.695 445.589 626.013 449.27 621.488 449.27ZM368.444 64.624C364.111 64.624 360.587 68.1492 360.587 72.4808V441.063C360.587 445.396 364.112 448.92 368.444 448.92H621.488C625.821 448.92 629.345 445.396 629.345 441.063V72.4808C629.345 68.1492 625.82 64.624 621.488 64.624H368.444Z" fill="#E0E0E0"/>
<path d="M329.69 449.27H76.6444C72.1196 449.27 68.4376 445.588 68.4376 441.063V72.4808C68.4376 67.956 72.1182 64.274 76.6444 64.274H329.69C334.215 64.274 337.897 67.9546 337.897 72.4808V441.063C337.897 445.589 334.215 449.27 329.69 449.27ZM76.6444 64.624C72.3128 64.624 68.7876 68.1492 68.7876 72.4808V441.063C68.7876 445.396 72.3128 448.92 76.6444 448.92H329.69C334.023 448.92 337.547 445.396 337.547 441.063V72.4808C337.547 68.1492 334.022 64.624 329.69 64.624H76.6444Z" fill="#E0E0E0"/>
<path d="M700 534.768H0V535.118H700V534.768Z" fill="#E0E0E0"/>
<path d="M94.8248 554.737H72.3408V555.087H94.8248V554.737Z" fill="#E0E0E0"/>
<path d="M313.435 550.943H238.493V551.293H313.435V550.943Z" fill="#E0E0E0"/>
<path d="M146.975 567.743H96.2248V568.093H146.975V567.743Z" fill="#E0E0E0"/>
<path d="M590.159 550.761H529.693V551.111H590.159V550.761Z" fill="#E0E0E0"/>
<path d="M611.495 550.761H602.633V551.111H611.495V550.761Z" fill="#E0E0E0"/>
<path d="M518.143 559.483H442.697V559.833H518.143V559.483Z" fill="#E0E0E0"/>
<path d="M617.392 476.255H515.035V603.831H617.392V476.255Z" fill="#F0F0F0"/>
<path d="M617.392 476.255H591.251V603.831H617.392V476.255Z" fill="#E0E0E0"/>
<path opacity="0.4" d="M612.763 536.778H596.705V540.043H612.763V536.778Z" fill="white"/>
<path opacity="0.4" d="M612.763 543.505H596.705V546.77H612.763V543.505Z" fill="white"/>
<path opacity="0.4" d="M612.763 550.231H596.705V553.496H612.763V550.231Z" fill="white"/>
<path opacity="0.4" d="M612.763 556.958H596.705V560.223H612.763V556.958Z" fill="white"/>
<path opacity="0.4" d="M612.763 563.685H596.705V566.949H612.763V563.685Z" fill="white"/>
<path opacity="0.4" d="M612.763 570.41H596.705V573.675H612.763V570.41Z" fill="white"/>
<path d="M103.285 544.578C100.017 544.578 97.3798 547.386 97.7186 550.637C100.747 579.702 125.322 602.361 155.187 602.361C185.052 602.361 209.629 579.702 212.659 550.637C212.997 547.387 210.36 544.578 207.092 544.578H103.285Z" fill="#EBEBEB"/>
<path opacity="0.5" d="M128.164 535.591C127.224 535.591 126.463 534.829 126.463 533.89V523.46C126.463 515.593 132.864 509.193 140.731 509.193H175.312C178.179 509.193 180.51 506.86 180.51 503.993C180.51 501.126 178.178 498.795 175.312 498.795H147.531C143 498.795 139.313 495.109 139.313 490.577C139.313 486.045 143 482.357 147.531 482.357H159.769C163.496 482.357 166.526 479.326 166.526 475.6C166.526 471.873 163.496 468.843 159.769 468.843H151.976C151.035 468.843 150.275 468.082 150.275 467.142C150.275 466.203 151.035 465.441 151.976 465.441H159.769C165.371 465.441 169.928 469.998 169.928 475.6C169.928 481.201 165.371 485.759 159.769 485.759H147.531C144.873 485.759 142.713 487.921 142.713 490.577C142.713 493.233 144.872 495.394 147.531 495.394H175.312C180.057 495.394 183.912 499.253 183.912 503.994C183.912 508.736 180.055 512.596 175.312 512.596H140.731C134.737 512.596 129.865 517.469 129.865 523.461V533.891C129.865 534.831 129.105 535.592 128.164 535.592V535.591Z" fill="#E0E0E0"/>
<path d="M642.701 601.146H57.2992V628.709H642.701V601.146Z" fill="#E0E0E0"/>
<path d="M106.961 366.309H81.3848V391.885H106.961V366.309Z" fill="#FAFAFA"/>
<path d="M106.961 393.562H81.3848V419.139H106.961V393.562Z" fill="#FAFAFA"/>
<path d="M134.592 366.309H109.015V391.885H134.592V366.309Z" fill="#FAFAFA"/>
<path d="M134.592 393.562H109.015V419.139H134.592V393.562Z" fill="#FAFAFA"/>
<path d="M162.418 366.309H136.842V391.885H162.418V366.309Z" fill="#FAFAFA"/>
<path d="M162.418 393.562H136.842V419.139H162.418V393.562Z" fill="#FAFAFA"/>
<path d="M189.41 366.309H163.835V391.885H189.41V366.309Z" fill="#FAFAFA"/>
<path d="M189.41 393.562H163.835V419.139H189.41V393.562Z" fill="#FAFAFA"/>
<path d="M216.237 366.309H190.66V391.885H216.237V366.309Z" fill="#FAFAFA"/>
<path d="M216.237 393.562H190.66V419.139H216.237V393.562Z" fill="#FAFAFA"/>
<path d="M243.062 366.309H217.486V391.885H243.062V366.309Z" fill="#FAFAFA"/>
<path d="M243.062 393.562H217.486V419.139H243.062V393.562Z" fill="#FAFAFA"/>
<path d="M269.888 366.309H244.311V391.885H269.888V366.309Z" fill="#FAFAFA"/>
<path d="M269.888 393.562H244.311V419.139H269.888V393.562Z" fill="#FAFAFA"/>
<path d="M296.713 366.309H271.137V391.885H296.713V366.309Z" fill="#FAFAFA"/>
<path d="M296.713 393.562H271.137V419.139H296.713V393.562Z" fill="#FAFAFA"/>
<path d="M323.537 366.309H297.961V391.885H323.537V366.309Z" fill="#FAFAFA"/>
<path d="M323.537 393.562H297.961V419.139H323.537V393.562Z" fill="#FAFAFA"/>
<path d="M350.363 366.309H324.786V391.885H350.363V366.309Z" fill="#FAFAFA"/>
<path d="M350.363 393.562H324.786V419.139H350.363V393.562Z" fill="#FAFAFA"/>
<path d="M377.188 366.309H351.611V391.885H377.188V366.309Z" fill="#FAFAFA"/>
<path d="M377.188 393.562H351.611V419.139H377.188V393.562Z" fill="#FAFAFA"/>
<path d="M404.013 366.309H378.437V391.885H404.013V366.309Z" fill="#FAFAFA"/>
<path d="M404.013 393.562H378.437V419.139H404.013V393.562Z" fill="#FAFAFA"/>
<path d="M430.837 366.309H405.262V391.885H430.837V366.309Z" fill="#FAFAFA"/>
<path d="M430.837 393.562H405.262V419.139H430.837V393.562Z" fill="#FAFAFA"/>
<path d="M457.664 366.309H432.088V391.885H457.664V366.309Z" fill="#FAFAFA"/>
<path d="M457.664 393.562H432.088V419.139H457.664V393.562Z" fill="#FAFAFA"/>
<path d="M484.49 366.309H458.913V391.885H484.49V366.309Z" fill="#FAFAFA"/>
<path d="M484.49 393.562H458.913V419.139H484.49V393.562Z" fill="#FAFAFA"/>
<path d="M511.314 366.309H485.738V391.885H511.314V366.309Z" fill="#FAFAFA"/>
<path d="M511.314 393.562H485.738V419.139H511.314V393.562Z" fill="#FAFAFA"/>
<path d="M538.139 366.309H512.562V391.885H538.139V366.309Z" fill="#FAFAFA"/>
<path d="M538.139 393.562H512.562V419.139H538.139V393.562Z" fill="#FAFAFA"/>
<path d="M564.964 366.309H539.388V391.885H564.964V366.309Z" fill="#FAFAFA"/>
<path d="M564.964 393.562H539.388V419.139H564.964V393.562Z" fill="#FAFAFA"/>
<path d="M591.79 366.309H566.213V391.885H591.79V366.309Z" fill="#FAFAFA"/>
<path d="M591.79 393.562H566.213V419.139H591.79V393.562Z" fill="#FAFAFA"/>
<path d="M618.615 366.309H593.039V391.885H618.615V366.309Z" fill="#FAFAFA"/>
<path d="M618.615 393.562H593.039V419.139H618.615V393.562Z" fill="#FAFAFA"/>
<path d="M106.961 311.882H81.3848V337.459H106.961V311.882Z" fill="#FAFAFA"/>
<path d="M106.961 339.135H81.3848V364.711H106.961V339.135Z" fill="#FAFAFA"/>
<path d="M134.592 311.882H109.015V337.459H134.592V311.882Z" fill="#FAFAFA"/>
<path d="M134.592 339.135H109.015V364.711H134.592V339.135Z" fill="#FAFAFA"/>
<path d="M162.418 311.882H136.842V337.459H162.418V311.882Z" fill="#FAFAFA"/>
<path d="M162.418 339.135H136.842V364.711H162.418V339.135Z" fill="#FAFAFA"/>
<path d="M189.41 311.882H163.835V337.459H189.41V311.882Z" fill="#FAFAFA"/>
<path d="M189.41 339.135H163.835V364.711H189.41V339.135Z" fill="#FAFAFA"/>
<path d="M216.237 311.882H190.66V337.459H216.237V311.882Z" fill="#FAFAFA"/>
<path d="M216.237 339.135H190.66V364.711H216.237V339.135Z" fill="#FAFAFA"/>
<path d="M243.062 311.882H217.486V337.459H243.062V311.882Z" fill="#FAFAFA"/>
<path d="M243.062 339.135H217.486V364.711H243.062V339.135Z" fill="#FAFAFA"/>
<path d="M269.888 311.882H244.311V337.459H269.888V311.882Z" fill="#FAFAFA"/>
<path d="M269.888 339.135H244.311V364.711H269.888V339.135Z" fill="#FAFAFA"/>
<path d="M296.713 311.882H271.137V337.459H296.713V311.882Z" fill="#FAFAFA"/>
<path d="M296.713 339.135H271.137V364.711H296.713V339.135Z" fill="#FAFAFA"/>
<path d="M323.537 311.882H297.961V337.459H323.537V311.882Z" fill="#FAFAFA"/>
<path d="M323.537 339.135H297.961V364.711H323.537V339.135Z" fill="#FAFAFA"/>
<path d="M350.363 311.882H324.786V337.459H350.363V311.882Z" fill="#FAFAFA"/>
<path d="M350.363 339.135H324.786V364.711H350.363V339.135Z" fill="#FAFAFA"/>
<path d="M377.188 311.882H351.611V337.459H377.188V311.882Z" fill="#FAFAFA"/>
<path d="M377.188 339.135H351.611V364.711H377.188V339.135Z" fill="#FAFAFA"/>
<path d="M404.013 311.882H378.437V337.459H404.013V311.882Z" fill="#FAFAFA"/>
<path d="M404.013 339.135H378.437V364.711H404.013V339.135Z" fill="#FAFAFA"/>
<path d="M430.837 311.882H405.262V337.459H430.837V311.882Z" fill="#FAFAFA"/>
<path d="M430.837 339.135H405.262V364.711H430.837V339.135Z" fill="#FAFAFA"/>
<path d="M457.664 311.882H432.088V337.459H457.664V311.882Z" fill="#FAFAFA"/>
<path d="M457.664 339.135H432.088V364.711H457.664V339.135Z" fill="#FAFAFA"/>
<path d="M484.49 311.882H458.913V337.459H484.49V311.882Z" fill="#FAFAFA"/>
<path d="M484.49 339.135H458.913V364.711H484.49V339.135Z" fill="#FAFAFA"/>
<path d="M511.314 311.882H485.738V337.459H511.314V311.882Z" fill="#FAFAFA"/>
<path d="M511.314 339.135H485.738V364.711H511.314V339.135Z" fill="#FAFAFA"/>
<path d="M538.139 311.882H512.562V337.459H538.139V311.882Z" fill="#FAFAFA"/>
<path d="M538.139 339.135H512.562V364.711H538.139V339.135Z" fill="#FAFAFA"/>
<path d="M564.964 311.882H539.388V337.459H564.964V311.882Z" fill="#FAFAFA"/>
<path d="M564.964 339.135H539.388V364.711H564.964V339.135Z" fill="#FAFAFA"/>
<path d="M591.79 311.882H566.213V337.459H591.79V311.882Z" fill="#FAFAFA"/>
<path d="M591.79 339.135H566.213V364.711H591.79V339.135Z" fill="#FAFAFA"/>
<path d="M618.615 311.882H593.039V337.459H618.615V311.882Z" fill="#FAFAFA"/>
<path d="M618.615 339.135H593.039V364.711H618.615V339.135Z" fill="#FAFAFA"/>
<path d="M618.442 98.3192H371.4V272.854H618.442V98.3192Z" fill="#EBEBEB"/>
<path d="M487.878 105.844H379.28V264.902H487.878V105.844Z" fill="#F5F5F5"/>
<path d="M607.026 105.844H498.427V264.902H607.026V105.844Z" fill="#F5F5F5"/>
<path d="M505.915 204.604V171.637C514.977 171.637 522.323 178.983 522.323 188.045V188.196C522.323 197.259 514.977 204.604 505.915 204.604Z" fill="#E0E0E0"/>
<path d="M480.35 171.637V204.604C471.288 204.604 463.942 197.259 463.942 188.196V188.045C463.942 178.983 471.288 171.637 480.35 171.637Z" fill="#E0E0E0"/>
<path d="M327.918 98.3192H80.8766V272.854H327.918V98.3192Z" fill="#EBEBEB"/>
<path d="M197.354 105.844H88.7558V264.902H197.354V105.844Z" fill="#F5F5F5"/>
<path d="M316.502 105.844H207.903V264.902H316.502V105.844Z" fill="#F5F5F5"/>
<path d="M215.391 204.604V171.637C224.454 171.637 231.799 178.983 231.799 188.045V188.196C231.799 197.259 224.454 204.604 215.391 204.604Z" fill="#E0E0E0"/>
<path d="M189.826 204.604C180.771 204.604 173.418 197.252 173.418 188.196V188.045C173.418 178.99 180.771 171.637 189.826 171.637V204.604Z" fill="#E0E0E0"/>
<path d="M621.23 652.849C621.23 655.915 503.496 673.338 355.258 673.338C207.021 673.338 78.771 656.156 78.771 653.09C78.771 650.024 206.06 652.851 354.299 652.851C502.538 652.851 621.23 649.783 621.23 652.849Z" fill="#F5F5F5"/>
<path d="M461.625 180.659C439.261 163.353 407.103 167.454 389.799 189.818C376.439 207.082 375.889 230.16 386.599 247.759L382.124 262.472L398.314 261.092C398.537 261.269 398.733 261.47 398.958 261.645C421.322 278.95 453.478 274.849 470.784 252.486C488.089 230.122 483.988 197.963 461.625 180.659Z" fill="#FFB996"/>
<path d="M487.976 221.306H487.939C487.554 221.285 487.257 220.956 487.277 220.57C488.132 204.243 480.094 187.552 466.794 178.045C466.479 177.82 466.407 177.383 466.631 177.068C466.855 176.754 467.295 176.681 467.608 176.905C481.288 186.683 489.556 203.851 488.674 220.643C488.655 221.017 488.347 221.306 487.976 221.306Z" fill="#FFB996"/>
<path d="M485.919 236.351C485.831 236.351 485.74 236.334 485.653 236.298C485.296 236.151 485.125 235.742 485.274 235.383C486.199 233.135 486.66 230.661 486.608 228.231C486.599 227.844 486.906 227.524 487.292 227.515C487.707 227.51 487.999 227.814 488.008 228.2C488.064 230.822 487.567 233.491 486.567 235.915C486.457 236.186 486.195 236.349 485.92 236.349L485.919 236.351Z" fill="#FFB996"/>
<path d="M452.675 206.539C449.176 203.72 445.346 203.699 441.606 204.824C438.69 205.701 436.918 207.668 434.795 210.078C433.811 211.196 432.81 213.004 432.026 214.959C431.242 213.004 430.24 211.196 429.257 210.078C427.134 207.668 425.363 205.702 422.446 204.824C418.706 203.7 414.876 203.72 411.377 206.539C408.092 209.188 407.554 214.073 408.528 218.18C409.501 222.288 412.208 226.463 414.854 229.503C420.403 235.88 425.324 240.705 432.026 244.187C440.334 239.429 443.649 235.88 449.198 229.503C451.844 226.463 454.551 222.288 455.524 218.18C456.497 214.071 455.96 209.187 452.675 206.539Z" fill="white"/>
<path d="M315.169 270.602C323.163 286.94 334.26 301.711 347.558 314.107C360.857 326.502 376.277 336.526 393.015 343.57C402.504 347.564 412.38 350.57 422.495 352.492C424.476 352.869 425.324 349.833 423.332 349.454C405.789 346.121 388.991 339.508 373.787 330.155C358.583 320.802 344.936 308.668 333.873 294.561C327.662 286.642 322.312 278.048 317.89 269.01C316.999 267.19 314.282 268.785 315.169 270.6V270.602Z" fill="#263238"/>
<path d="M309.455 241.052L214.123 279.062C223.937 313.317 224.295 350.617 212.626 384.287C211.06 388.809 209.268 393.32 208.772 398.08C208.277 402.84 209.268 408.009 212.603 411.44C215.373 414.292 219.337 415.575 223.132 416.759C232.313 419.622 241.496 422.484 250.677 425.347C267.175 430.49 283.766 435.655 300.889 437.983C318.013 440.311 335.854 439.687 351.991 433.502C368.127 427.316 382.397 415.097 388.637 398.983C385.577 392.169 382.515 385.356 379.455 378.542C384.09 382.813 388.725 387.085 393.361 391.356C399.204 387.517 404.334 382.598 408.414 376.919C360.392 344.169 330.128 287.031 309.455 241.053V241.052Z" fill="#263238"/>
<path d="M246.046 308.279C249.9 327.942 253.742 363.992 239.988 377.114C239.988 377.114 285.88 403.109 306.585 441.024C320.68 406.872 301.127 377.114 301.127 377.114C279.181 371.875 279.758 355.624 283.573 340.312L246.046 308.279Z" fill="#FDAD6A"/>
<path opacity="0.2" d="M261.345 321.36L283.56 340.298C282.61 343.853 281.977 347.484 281.666 351.151C273.286 349.943 261.775 340.742 260.887 331.971C260.397 328.436 260.553 324.841 261.344 321.36H261.345Z" fill="black"/>
<path d="M225.295 272.188C232.964 304.181 235.543 317.855 254.507 331.649C283.023 352.346 319.851 336.014 321.664 302.396C323.33 272.135 310.503 224.897 277.179 217.524C244.394 210.258 217.612 240.195 225.294 272.189L225.295 272.188Z" fill="#FDAD6A"/>
<path d="M222.515 231.962C254.454 259.281 285.575 214.152 304.15 236.38C314.895 226.817 284.621 202.198 266.407 201.298C248.195 200.397 208.72 212.943 222.515 231.962Z" fill="#263238"/>
<path d="M227.444 229.356C260.875 241.592 239.474 338.491 226.297 312.633C218.695 297.711 193.26 235.32 227.444 229.356Z" fill="#263238"/>
<path d="M286.783 304.168C288.287 304.16 289.787 304.025 291.269 303.765C291.693 303.691 291.976 303.288 291.901 302.863V302.852C291.833 302.435 291.441 302.149 291.022 302.217L290.998 302.221C284.379 303.541 277.526 301.63 272.544 297.077C272.234 296.772 271.737 296.772 271.429 297.077C271.124 297.387 271.124 297.884 271.429 298.192C275.576 302.102 281.082 304.245 286.782 304.168H286.783Z" fill="#263238"/>
<path d="M224.805 306.141C229.046 310.765 235.066 313.347 241.339 313.232C249.183 312.816 250.083 303.75 245.368 296.456C241.137 289.888 231.937 282.191 225.302 286.181C218.667 290.17 219.124 300.205 224.805 306.141Z" fill="#FDAD6A"/>
<path d="M265.439 272.761C265.877 276.021 268.101 278.558 270.406 278.425C272.71 278.293 274.222 275.542 273.783 272.283C273.344 269.023 271.12 266.486 268.817 266.619C266.512 266.75 265 269.501 265.439 272.762V272.761Z" fill="#263238"/>
<path d="M299.193 269.517C299.618 272.629 301.799 275.047 304.062 274.917C306.324 274.786 307.814 272.16 307.388 269.048C306.963 265.936 304.783 263.518 302.519 263.648C300.257 263.777 298.767 266.405 299.193 269.517Z" fill="#263238"/>
<path d="M259.899 261.117C260.351 261.17 260.809 261.057 261.159 260.764C266.608 256.192 272.766 257.922 272.838 257.942C273.75 258.201 274.672 257.74 274.877 256.886C275.08 256.033 274.499 255.126 273.574 254.853C273.252 254.761 265.523 252.582 258.761 258.259C258.087 258.825 258.077 259.846 258.738 260.537C259.057 260.869 259.475 261.068 259.899 261.117Z" fill="#263238"/>
<path d="M309.457 252.826C309.802 252.629 310.066 252.312 310.169 251.915C310.383 251.094 309.838 250.249 308.956 250.023C300.104 247.775 294.508 252.424 294.273 252.627C293.611 253.191 293.579 254.163 294.204 254.797C294.826 255.431 295.866 255.49 296.53 254.93C296.747 254.745 301.141 251.201 308.181 252.99C308.636 253.105 309.093 253.035 309.457 252.826Z" fill="#263238"/>
<path d="M289.901 267.947C289.901 267.947 297.175 282.121 304.128 288.793C300.285 293.139 292.697 291.609 292.697 291.609L289.902 267.949L289.901 267.947Z" fill="#FE7F3A"/>
<path d="M275.183 264.562L267.858 266.91C271.537 270.446 275.183 264.562 275.183 264.562Z" fill="#263238"/>
<path d="M308.507 261.622L301.182 263.97C304.861 267.506 308.507 261.622 308.507 261.622Z" fill="#263238"/>
<path opacity="0.5" d="M239.452 301.168C239.189 301.168 238.96 300.969 238.931 300.702C238.615 297.906 236.93 295.252 234.535 293.775C232.14 292.296 229.011 291.983 226.372 292.958C226.1 293.061 225.799 292.919 225.697 292.648C225.597 292.376 225.736 292.074 226.008 291.973C228.945 290.891 232.424 291.238 235.085 292.88C237.749 294.522 239.623 297.475 239.974 300.584C240.006 300.873 239.799 301.133 239.511 301.165C239.491 301.167 239.471 301.168 239.452 301.168Z" fill="black"/>
<path d="M213.249 279.257L201.932 240.769C201.932 240.769 164.027 229.281 163.405 207.598C162.784 185.913 186.588 158.581 244.994 147.161C303.401 135.741 327.076 177.117 318.436 190.782C309.795 204.449 299.908 207.355 299.908 207.355L310.041 243.123C310.041 243.123 264.887 235.684 213.251 279.258L213.249 279.257Z" fill="#FFB996"/>
<path opacity="0.3" d="M213.249 279.257L201.932 240.769C201.932 240.769 164.027 229.281 163.405 207.598C162.784 185.913 186.588 158.581 244.994 147.161C303.401 135.741 327.076 177.117 318.436 190.782C309.795 204.449 299.908 207.355 299.908 207.355L310.041 243.123C310.041 243.123 264.887 235.684 213.251 279.258L213.249 279.257Z" fill="white"/>
<g opacity="0.3">
<path d="M235.211 162.53C233.524 159.933 231.19 158.542 226.652 159.663C207.385 163.125 189.449 173.566 176.924 188.609C174.388 191.654 171.989 195.077 171.55 199.014C171.112 202.951 173.314 207.435 177.185 208.275C181.035 209.111 184.632 206.265 187.477 203.539C196.998 194.421 206.165 184.09 218.575 179.64C221.49 178.594 224.528 177.901 227.399 176.74C230.271 175.58 233.038 173.874 234.751 171.294C236.463 168.714 236.9 165.129 235.213 162.532L235.211 162.53Z" fill="white"/>
</g>
<path opacity="0.3" d="M201.932 240.769C201.932 240.769 230.385 189.206 299.907 207.355C299.907 207.355 267.035 190.914 235.056 207.661C208.593 221.519 201.932 240.769 201.932 240.769Z" fill="black"/>
<path d="M190.049 202.16C196.185 211.882 205.485 218.953 216.485 222.288C205.044 221.001 194.338 212.842 190.049 202.16Z" fill="#263238"/>
<path d="M245.28 207.081C241.368 198.131 238.357 188.875 236.275 179.332C240.194 188.279 243.191 197.539 245.28 207.081Z" fill="#263238"/>
<path d="M282.916 204.302C286.989 194.915 289.941 185.392 291.914 175.353C291.904 185.56 288.687 195.885 282.916 204.302Z" fill="#263238"/>
<path d="M178.247 237.202C178.172 237.202 178.098 237.191 178.024 237.166C169.897 234.447 162.943 228.161 159.421 220.349C155.897 212.537 155.789 203.162 159.131 195.272C159.281 194.915 159.697 194.751 160.048 194.9C160.404 195.051 160.57 195.461 160.42 195.817C157.228 203.354 157.331 212.309 160.696 219.772C164.062 227.234 170.705 233.24 178.468 235.837C178.835 235.959 179.032 236.356 178.909 236.723C178.811 237.016 178.538 237.201 178.245 237.201L178.247 237.202Z" fill="#FFB996"/>
<path d="M162.284 191.458C162.189 191.458 162.092 191.439 161.998 191.398C161.645 191.24 161.487 190.827 161.645 190.473C162.729 188.048 164.202 185.837 166.026 183.903C166.291 183.621 166.736 183.607 167.016 183.873C167.297 184.138 167.31 184.582 167.045 184.863C165.33 186.683 163.944 188.763 162.925 191.045C162.809 191.306 162.553 191.46 162.285 191.46L162.284 191.458Z" fill="#FFB996"/>
<g opacity="0.3">
<path d="M261.162 160.45C260.364 156.661 256.774 155.065 253.002 156.124C250.909 157.069 249.27 159.027 248.836 161.283C248.402 163.538 249.239 166.026 251.031 167.462C252.823 168.899 255.514 169.155 257.487 167.976C259.703 166.65 261.913 164.023 261.162 160.45Z" fill="white"/>
</g>
<path opacity="0.3" d="M208.373 244.579C208.373 244.579 217.977 273.066 218.767 271.16C222.716 261.64 257.947 245.518 270.138 242.931C270.138 242.931 261.113 209.468 257.947 210.302C254.782 211.135 221.341 221.715 208.373 244.579Z" fill="white"/>
<path d="M422.913 441.937C422.913 441.937 452.855 409.44 464.113 407.124C475.37 404.809 482.861 417.521 485.211 427.505C487.32 436.472 487.236 443.029 486.577 444.973C485.181 449.091 480.785 445.462 477.89 442.218C476.918 441.13 476.077 439.909 475.577 438.598C473.661 433.567 473.486 432.053 471.059 429.001C468.079 425.253 462.141 417.537 464.832 430.707C465.878 435.827 476.57 440.258 476.329 446.006C476.09 451.755 473.215 452.714 468.185 449.599C468.185 449.599 463.394 457.503 452.376 457.024L437.286 473.792L422.913 441.934V441.937Z" fill="#FDAD6A"/>
<path d="M471.621 452.066C470.044 452.066 468.455 451.444 467.131 450.821C464.225 449.455 461.423 447.825 458.795 445.973C456.081 449.029 452.095 450.878 448.001 450.953C443.678 451.016 439.421 449.134 436.591 445.88C436.337 445.589 436.369 445.147 436.66 444.893C436.953 444.637 437.394 444.672 437.647 444.962C440.209 447.908 444.074 449.621 447.978 449.553C451.882 449.483 455.679 447.628 458.135 444.59C458.368 444.298 458.786 444.247 459.089 444.462C461.798 446.419 464.705 448.133 467.729 449.555C469.393 450.339 471.524 451.132 473.203 450.327C475.006 449.462 475.558 447.023 475.048 445.165C474.477 443.08 472.916 441.405 471.313 439.905C466.382 435.292 460.527 431.635 454.867 428.098C454.539 427.893 454.439 427.462 454.644 427.134C454.849 426.805 455.286 426.706 455.608 426.912C461.325 430.485 467.239 434.176 472.269 438.883C473.936 440.444 475.733 442.368 476.398 444.797C477.049 447.174 476.363 450.363 473.808 451.59C473.099 451.928 472.361 452.067 471.621 452.067V452.066Z" fill="#FE7F3A"/>
<path d="M480.326 443.582C478.436 443.582 476.896 442.1 476.83 442.037C476.554 441.769 476.547 441.326 476.816 441.049C477.085 440.773 477.529 440.765 477.805 441.032C477.812 441.039 478.454 441.652 479.322 441.981C480.364 442.373 481.242 442.187 481.996 441.402C483.444 439.897 482.381 432.711 479.412 423.928C478.654 421.686 476.5 418.198 474.928 415.653C473.425 413.221 473.07 412.608 473.039 412.182C473.011 411.797 473.302 411.461 473.689 411.435C474.025 411.405 474.377 411.671 474.431 412.031C474.54 412.364 475.377 413.721 476.118 414.918C477.725 417.521 479.928 421.086 480.738 423.48C482.336 428.208 485.757 439.512 483.004 442.373C482.248 443.16 481.366 443.566 480.383 443.582H480.325H480.326Z" fill="#FE7F3A"/>
<path d="M347.533 385.382C347.533 385.382 363.247 390.453 371.902 415.143C380.555 439.832 382.082 449.25 382.082 449.25L386.726 465.186L426.352 434.727C426.352 434.727 458.02 509.065 454.71 513.901C451.401 518.736 384.118 551.825 384.118 551.825L356.629 450.523L347.533 385.382Z" fill="#FFB996"/>
<path opacity="0.3" d="M347.533 385.382C347.533 385.382 363.247 390.453 371.902 415.143C380.555 439.832 382.082 449.25 382.082 449.25L386.726 465.186L426.352 434.727C426.352 434.727 458.02 509.065 454.71 513.901C451.401 518.736 384.118 551.825 384.118 551.825L356.629 450.523L347.533 385.382Z" fill="white"/>
<path opacity="0.3" d="M357.262 404.289C357.262 404.289 371.13 427.06 373.569 447.807C376.008 468.553 393.284 547.278 393.284 547.278L384.119 551.825L357.263 404.289H357.262Z" fill="black"/>
<path d="M483.2 454.796C481.552 454.724 480.238 456.782 480.997 458.247C481.755 459.711 484.194 459.826 485.087 458.44C485.981 457.052 484.866 454.881 483.218 454.797" fill="#FFB996"/>
<path d="M471.192 466.921C469.545 466.85 468.23 468.908 468.989 470.372C469.748 471.836 472.186 471.951 473.08 470.565C473.973 469.179 472.858 467.006 471.211 466.922" fill="#FFB996"/>
<path d="M475.16 462.892C474.048 462.844 473.162 464.232 473.673 465.22C474.184 466.208 475.831 466.285 476.433 465.35C477.035 464.414 476.283 462.949 475.171 462.892" fill="#FFB996"/>
<path d="M488.345 465.835C487.234 465.787 486.347 467.174 486.858 468.163C487.371 469.151 489.016 469.228 489.618 468.293C490.22 467.358 489.468 465.892 488.356 465.835" fill="#FFB996"/>
<path d="M478.927 449.719C477.816 449.672 476.93 451.059 477.441 452.047C477.952 453.036 479.598 453.113 480.2 452.178C480.802 451.241 480.05 449.777 478.939 449.719" fill="#FFB996"/>
<path d="M490.816 453.957C489.705 453.909 488.818 455.297 489.329 456.285C489.84 457.274 491.487 457.351 492.089 456.415C492.691 455.48 491.939 454.014 490.827 453.957" fill="#FFB996"/>
<g opacity="0.3">
<path d="M483.2 454.796C481.552 454.724 480.238 456.782 480.997 458.247C481.755 459.711 484.194 459.826 485.087 458.44C485.981 457.052 484.866 454.881 483.218 454.797" fill="white"/>
<path d="M471.192 466.921C469.545 466.85 468.23 468.908 468.989 470.372C469.748 471.836 472.186 471.951 473.08 470.565C473.973 469.179 472.858 467.006 471.211 466.922" fill="white"/>
<path d="M475.16 462.892C474.048 462.844 473.162 464.232 473.673 465.22C474.184 466.208 475.831 466.285 476.433 465.35C477.035 464.414 476.283 462.949 475.171 462.892" fill="white"/>
<path d="M488.345 465.835C487.234 465.787 486.347 467.174 486.858 468.163C487.371 469.151 489.016 469.228 489.618 468.293C490.22 467.358 489.468 465.892 488.356 465.835" fill="white"/>
<path d="M478.927 449.719C477.816 449.672 476.93 451.059 477.441 452.047C477.952 453.036 479.598 453.113 480.2 452.178C480.802 451.241 480.05 449.777 478.939 449.719" fill="white"/>
<path d="M490.816 453.957C489.705 453.909 488.818 455.297 489.329 456.285C489.84 457.274 491.487 457.351 492.089 456.415C492.691 455.48 491.939 454.014 490.827 453.957" fill="white"/>
</g>
<path opacity="0.3" d="M386.725 465.186C386.725 465.186 388.34 476.769 388.84 480.953L391.247 461.71L386.725 465.186Z" fill="black"/>
<path d="M237.318 374.651C235.473 375.266 182.379 399.297 182.379 405.447C182.379 411.597 242.714 569.45 242.714 569.45L227.247 648.582H408.414C408.414 648.582 372.343 513.542 370.497 464.876C368.652 416.21 347.533 385.382 347.533 385.382C347.533 385.382 297.905 370.528 297.289 368.262C296.674 365.995 289.047 352.002 289.047 352.002L239.49 349.675L237.318 374.651Z" fill="#FFB996"/>
<path opacity="0.3" d="M237.318 374.651C235.473 375.266 182.379 399.297 182.379 405.447C182.379 411.597 242.714 569.45 242.714 569.45L227.247 648.582H408.414C408.414 648.582 372.343 513.542 370.497 464.876C368.652 416.21 347.533 385.382 347.533 385.382C347.533 385.382 297.905 370.528 297.289 368.262C296.674 365.995 289.047 352.002 289.047 352.002L239.49 349.675L237.318 374.651Z" fill="white"/>
<path d="M306.463 548.15C306.531 551.643 304.515 554.515 301.959 554.565C299.404 554.616 297.276 551.824 297.209 548.332C297.14 544.839 299.156 541.968 301.711 541.918C304.266 541.867 306.396 544.659 306.463 548.15Z" fill="#263238"/>
<path d="M358.219 541.086C358.288 544.579 356.272 547.45 353.716 547.501C351.161 547.551 349.033 544.76 348.965 541.268C348.897 537.775 350.913 534.904 353.468 534.853C356.023 534.803 358.151 537.594 358.219 541.086Z" fill="#263238"/>
<path d="M270.824 648.634L269.429 648.533C269.457 648.152 272.199 609.89 273.745 568.712C275.286 527.652 238.962 420.053 238.595 418.971L238.392 418.372L287.722 395.863L277.277 352.366L278.639 352.038L289.355 396.659L240.124 419.122C243.064 427.892 276.636 529.053 275.145 568.765C273.599 609.969 270.855 648.253 270.827 648.635L270.824 648.634Z" fill="#263238"/>
<path opacity="0.3" d="M235.665 605.397L315.014 587.103L319.101 548.713C319.101 548.713 350.059 549.952 357.49 540.457C364.92 530.964 366.303 509.242 366.303 509.242L293.506 519.406L242.712 569.452L235.663 605.398L235.665 605.397Z" fill="black"/>
<path d="M270.778 431.561C271.652 434.944 270.354 438.203 267.88 438.843C265.406 439.482 262.692 437.259 261.817 433.877C260.943 430.494 262.241 427.235 264.715 426.595C267.19 425.956 269.903 428.179 270.778 431.561Z" fill="#263238"/>
<path d="M319.045 416.525C319.918 419.908 318.62 423.167 316.147 423.807C313.673 424.446 310.958 422.223 310.083 418.841C309.21 415.459 310.507 412.199 312.981 411.56C315.456 410.92 318.17 413.144 319.045 416.525Z" fill="#263238"/>
<path d="M287.001 472.804C287.875 476.186 286.577 479.446 284.103 480.085C281.628 480.725 278.915 478.502 278.04 475.12C277.166 471.737 278.464 468.478 280.938 467.838C283.412 467.198 286.126 469.422 287.001 472.804Z" fill="#263238"/>
<path d="M333.133 458.258C334.006 461.64 332.709 464.9 330.235 465.539C327.761 466.179 325.046 463.956 324.171 460.573C323.298 457.191 324.596 453.932 327.069 453.292C329.545 452.652 332.259 454.876 333.133 458.258Z" fill="#263238"/>
<path d="M311.641 590.915C311.71 594.408 309.694 597.279 307.138 597.33C304.583 597.38 302.455 594.588 302.387 591.097C302.319 587.604 304.335 584.732 306.891 584.682C309.446 584.632 311.574 587.423 311.641 590.915Z" fill="#263238"/>
<path d="M363.398 583.85C363.467 587.343 361.451 590.215 358.896 590.265C356.341 590.316 354.213 587.525 354.145 584.032C354.077 580.539 356.093 577.668 358.649 577.618C361.204 577.567 363.332 580.359 363.399 583.85H363.398Z" fill="#263238"/>
<path opacity="0.3" d="M233.877 517.265C229.991 501.672 219.806 464.876 219.806 464.876L223.202 518.069L227.004 528.126C227.004 528.126 234.566 524.489 235.334 524.121L291.227 497.924L233.877 517.265Z" fill="black"/>
<path d="M564.532 414.225C563.409 409.833 560.463 404.49 556.023 405.402C552.093 406.21 550.99 411.212 550.71 415.215C550.085 424.111 549.459 433.006 548.835 441.903C547.082 435.554 545.331 429.205 543.578 422.855C542.846 420.202 541.443 416.994 538.691 416.945C535.252 416.884 534.178 421.539 534.233 424.979L534.535 444.216C533.781 442.893 532.115 441.906 530.558 442.253C527.995 442.823 526.481 445.612 526.285 448.23C526.089 450.848 526.057 455.605 525.808 458.219C524.913 467.604 523.11 472.293 518.679 479.411C514.164 486.663 505.716 490.487 498.508 495.074L525.567 516.372C543.187 507.551 556.466 491.082 562.954 472.476C569.443 453.87 569.414 433.317 564.53 414.227L564.532 414.225Z" fill="#B97964"/>
<path d="M386.4 483.654C388.618 486.363 399.022 529.463 446.704 527.838C494.385 526.213 540.911 519.107 553.986 513.751C578.616 503.66 585.411 462.819 585.411 462.819C582.702 462.819 386.4 483.654 386.4 483.654Z" fill="#263238"/>
<path d="M390.65 483.08L307.571 494.301L309.25 506.735L392.329 495.514L390.65 483.08Z" fill="#263238"/>
<path opacity="0.3" d="M390.65 483.08L307.571 494.301L309.25 506.735L392.329 495.514L390.65 483.08Z" fill="white"/>
<path opacity="0.3" d="M410.451 484.82C410.451 484.82 430.025 524.055 470.078 522.202C470.078 522.202 442.042 505.766 437.745 482.038L410.451 484.82Z" fill="white"/>
<path opacity="0.1" d="M575.508 469.517C575.508 469.517 563 511.542 523.229 516.631C523.229 516.631 548.008 495.602 548.143 471.489L575.508 469.517Z" fill="white"/>
<path d="M183.687 403.39C183.687 403.39 167.245 420.123 166.706 456.162C166.167 492.201 172.276 592.042 183.912 599.589C195.549 607.137 311.942 567.025 311.942 567.025C311.942 567.025 294.153 495.867 292.536 495.867C290.919 495.867 224.546 527.884 224.546 527.884C224.546 527.884 223.714 459.586 216.706 436.946C209.698 414.305 209.784 396.494 183.687 403.392V403.39Z" fill="#FFB996"/>
<path opacity="0.3" d="M183.687 403.39C183.687 403.39 167.245 420.123 166.706 456.162C166.167 492.201 172.276 592.042 183.912 599.589C195.549 607.137 311.942 567.025 311.942 567.025C311.942 567.025 294.153 495.867 292.536 495.867C290.919 495.867 224.546 527.884 224.546 527.884C224.546 527.884 223.714 459.586 216.706 436.946C209.698 414.305 209.784 396.494 183.687 403.392V403.39Z" fill="white"/>
<path opacity="0.3" d="M224.546 527.884L217.379 553.774L231.643 524.467L224.546 527.884Z" fill="black"/>
<g opacity="0.3">
<path d="M188.789 410.287C192.083 407.845 197.098 409.804 200.228 412.453C203.358 415.101 205.267 418.907 206.739 422.733C212.926 438.805 212.738 456.771 209.209 473.628C205.68 490.484 198.974 506.484 192.304 522.361C191.033 525.388 188.334 529.045 185.335 527.709C183.694 526.978 183.025 525.043 182.552 523.31C172.43 486.235 170.222 453.737 174.71 437.177C174.71 437.177 175.725 419.969 188.789 410.287Z" fill="white"/>
</g>
<path d="M357.535 487.553C357.535 487.553 357.006 477.698 348.278 477.485C339.55 477.273 336.146 479.401 331.675 481.104C327.205 482.807 313.369 492.386 313.369 492.386L293.999 501.752L302.866 531.531C302.866 531.531 304.216 523.037 315.711 524.314C327.205 525.591 336.571 526.443 339.552 526.016L342.532 525.591C342.532 525.591 348.492 527.293 350.409 523.249C350.409 523.249 358.498 523.249 358.071 515.798C358.071 515.798 368.367 512.352 367.612 507.182C366.857 502.013 364.071 499.159 364.071 499.159L359.58 499.936C359.58 499.936 348.279 490.468 348.918 488.552L357.536 487.551L357.535 487.553Z" fill="#FDAD6A"/>
<path d="M293.885 499.085L299.909 496.126L310.573 535.886L304.578 538.112L293.885 499.085Z" fill="white"/>
<path d="M455.013 607.769C452.763 607.769 450.947 609.703 451.181 611.94C453.265 631.949 470.183 647.548 490.742 647.548C511.301 647.548 528.22 631.949 530.306 611.94C530.538 609.703 528.724 607.769 526.474 607.769H455.013Z" fill="#FFB996"/>
<path d="M643.063 644.074H57.6618V653.089H643.063V644.074Z" fill="#263238"/>
<path d="M561.875 614.928H546.505C544.799 614.928 543.416 616.311 543.416 618.017V640.984C543.416 642.691 544.799 644.074 546.505 644.074H561.875C563.581 644.074 564.964 642.691 564.964 640.984V618.017C564.964 616.311 563.581 614.928 561.875 614.928Z" fill="#FFB996"/>
</svg>
