<svg width="638" height="680" viewBox="0 0 638 680" fill="none" xmlns="http://www.w3.org/2000/svg">
<path d="M131.256 375.288C109.992 381.336 80.424 379.272 67.368 365.4C64.552 362.408 64.776 355.016 65.128 351.864C66.392 340.264 84.808 332.664 101.208 328.12C122.008 322.232 155.608 322.152 166.936 335.8C169.688 339.128 171.832 340.36 171.496 344.264C170.648 354.2 158.056 367.656 131.256 375.288Z" fill="#C7C7C7"/>
<path d="M132.472 370.44C111.208 376.504 81.64 374.424 68.568 360.552C55.496 346.68 81.56 329.16 102.424 323.272C123.288 317.384 156.824 317.32 168.152 330.952C177.96 342.776 169.752 359.832 132.472 370.44Z" fill="#DBDBDB"/>
<path d="M130.072 366.024C112.712 370.968 88.552 369.224 77.88 357.944C67.208 346.664 88.488 332.344 105.528 327.544C122.568 322.744 149.976 322.664 159.224 333.816C167.24 343.416 160.6 357.4 130.072 366.024Z" fill="#EBEBEB"/>
<path d="M139.4 347.64C139.4 346.744 145.512 345.368 145.4 347.096C145.304 348.536 139.416 348.808 139.4 347.64Z" fill="white"/>
<path d="M125.496 335.992C123.896 335.992 124.088 332.632 127.192 332.792C129.8 332.872 127.64 336.024 125.496 335.992Z" fill="white"/>
<path d="M140.456 332.952C139.304 332.424 142.936 329.336 145.032 330.408C146.792 331.304 141.96 333.64 140.456 332.952Z" fill="white"/>
<path d="M148.312 350.52C149.56 349.768 154.712 351.096 152.232 352.488C150.184 353.656 146.712 351.496 148.312 350.52Z" fill="white"/>
<path d="M112.728 359.896C114.328 360.072 113.096 363.432 110.152 363.096C107.704 362.696 110.696 359.656 112.728 359.896Z" fill="white"/>
<path d="M93.4 345.176C93.4 346.088 87.176 347.336 87.416 345.592C87.672 344.152 93.528 344.008 93.4 345.176Z" fill="white"/>
<path d="M101.864 340.36C101.048 341.24 95.064 340.968 96.712 339.304C98.104 337.928 103 339.224 101.864 340.36Z" fill="white"/>
<path d="M114.2 351.784C115.896 351.48 117.896 354.392 114.664 354.888C111.976 355.288 112.04 352.152 114.2 351.784Z" fill="white"/>
<path d="M90.2 367.096C90.2 367.096 111.608 353.096 109.176 349.688C106.744 346.28 72.008 350.392 71.704 352.68C71.4 354.968 80.008 366.248 90.2 367.096Z" fill="#DBDBDB"/>
<path d="M90.2 332.248C90.2 332.248 107.88 343.544 115.16 342.168C122.44 340.792 128.424 322.072 124.28 321.944C120.136 321.816 95.736 326.728 90.2 332.248Z" fill="#DBDBDB"/>
<path d="M156.728 326.184C156.728 326.184 132.728 338.984 134.232 342.584C135.736 346.184 170.264 344.472 171.128 342.152C171.992 339.832 166.328 327.752 156.728 326.184Z" fill="#DBDBDB"/>
<path d="M153.96 359.128C153.96 359.128 134.76 348.568 127.608 350.168C120.456 351.768 116.408 370.408 120.68 370.408C124.952 370.408 148.968 364.744 153.96 359.128Z" fill="#DBDBDB"/>
<path d="M533.24 591.608C511.976 597.656 482.408 595.592 469.352 581.72C466.536 578.728 466.76 571.336 467.112 568.184C468.376 556.584 486.792 549.064 503.192 544.44C523.992 538.552 557.592 538.472 568.92 552.12C571.672 555.448 573.816 556.68 573.48 560.584C572.616 570.52 560.04 583.976 533.24 591.608Z" fill="#C7C7C7"/>
<path d="M534.456 586.76C513.192 592.824 483.624 590.744 470.552 576.872C457.48 563 483.544 545.48 504.408 539.592C525.272 533.704 558.808 533.64 570.136 547.272C579.944 559.096 571.8 576.152 534.456 586.76Z" fill="#DBDBDB"/>
<path d="M532.056 582.344C514.696 587.288 490.456 585.544 479.864 574.344C469.272 563.144 490.472 548.744 507.512 543.944C524.552 539.144 551.96 539.064 561.208 550.216C569.224 559.736 562.52 573.672 532.056 582.344Z" fill="#EBEBEB"/>
<path d="M541.4 563.96C541.4 563.064 547.512 561.688 547.384 563.416C547.272 564.856 541.4 565.128 541.4 563.96Z" fill="white"/>
<path d="M527.48 552.296C525.88 552.296 526.072 548.952 529.176 549.096C531.8 549.192 529.624 552.344 527.48 552.296Z" fill="white"/>
<path d="M542.44 549.272C541.288 548.744 544.92 545.656 547.016 546.728C548.776 547.624 543.944 549.96 542.44 549.272Z" fill="white"/>
<path d="M550.296 566.84C551.544 566.088 556.696 567.416 554.216 568.808C552.152 569.976 548.696 567.816 550.296 566.84Z" fill="white"/>
<path d="M514.712 576.216C516.312 576.392 515.08 579.752 512.136 579.416C509.688 579.016 512.68 575.976 514.712 576.216Z" fill="white"/>
<path d="M495.432 561.496C495.432 562.408 489.208 563.656 489.448 561.912C489.656 560.472 495.512 560.328 495.432 561.496Z" fill="white"/>
<path d="M503.848 556.68C503.032 557.56 497.032 557.288 498.696 555.624C500.088 554.2 504.888 555.544 503.848 556.68Z" fill="white"/>
<path d="M516.216 568.104C517.912 567.8 519.912 570.712 516.664 571.208C513.96 571.608 514.024 568.472 516.216 568.104Z" fill="white"/>
<path d="M492.152 583.416C492.152 583.416 513.56 569.416 511.128 566.008C508.696 562.6 473.96 566.712 473.656 569C473.352 571.288 481.992 582.568 492.152 583.416Z" fill="#DBDBDB"/>
<path d="M492.168 548.568C492.168 548.568 509.768 559.864 517.128 558.488C524.488 557.112 530.392 538.392 526.248 538.264C522.104 538.136 497.72 543 492.168 548.568Z" fill="#DBDBDB"/>
<path d="M558.712 542.504C558.712 542.504 534.712 555.304 536.2 558.904C537.688 562.504 572.248 560.792 573.112 558.472C573.976 556.152 568.312 544.072 558.712 542.504Z" fill="#DBDBDB"/>
<path d="M555.944 575.448C555.944 575.448 536.744 564.888 529.592 566.488C522.44 568.088 518.392 586.728 522.664 586.728C526.936 586.728 551 581.064 555.944 575.448Z" fill="#DBDBDB"/>
<path d="M585.832 143.544C563.896 140.92 537.4 127.544 530.696 109.768C529.256 105.928 532.296 99.208 533.896 96.424C539.544 86.2 559.496 86.376 576.344 88.424C597.848 91.048 628.856 103.912 634.04 120.856C635.304 124.984 636.792 126.968 634.984 130.456C630.312 139.272 613.512 146.824 585.832 143.544Z" fill="#C7C7C7"/>
<path d="M588.824 139.544C566.872 136.92 540.392 123.544 533.688 105.768C526.984 87.992 557.784 81.768 579.288 84.424C600.792 87.08 631.784 99.912 636.968 116.856C641.464 131.544 627.32 144.12 588.824 139.544Z" fill="#DBDBDB"/>
<path d="M588.312 134.536C570.392 132.408 548.744 121.528 543.272 106.952C537.8 92.376 562.952 87.384 580.52 89.512C598.088 91.64 623.416 102.168 627.656 116.008C631.32 128.008 619.8 138.28 588.312 134.536Z" fill="#EBEBEB"/>
<path d="M604.008 121.16C604.344 120.344 610.52 121.432 609.752 122.968C609.112 124.264 603.576 122.2 604.008 121.16Z" fill="white"/>
<path d="M595.688 105.048C594.168 104.392 595.688 101.4 598.488 102.728C600.856 103.848 597.64 105.928 595.688 105.048Z" fill="white"/>
<path d="M610.648 108.024C609.8 107.096 614.328 105.64 615.864 107.432C617.144 108.936 611.8 109.24 610.648 108.024Z" fill="white"/>
<path d="M611.128 127.272C612.568 127.048 616.776 130.248 613.976 130.584C611.64 130.872 609.272 127.544 611.128 127.272Z" fill="white"/>
<path d="M574.68 122.2C576.056 122.968 573.64 125.624 571.096 124.104C568.968 122.84 572.888 121.192 574.68 122.2Z" fill="white"/>
<path d="M562.568 101.176C562.168 101.992 555.992 100.76 556.888 99.256C557.64 97.992 563.08 100.12 562.568 101.176Z" fill="white"/>
<path d="M572.184 99.976C571.096 100.472 565.672 97.912 567.848 97.016C569.656 96.28 573.592 99.336 572.184 99.976Z" fill="white"/>
<path d="M579.208 115.288C580.808 115.672 581.592 119.112 578.424 118.328C575.768 117.656 577.032 114.792 579.208 115.288Z" fill="white"/>
<path d="M551.096 120.136C551.096 120.136 576.232 115.464 575.304 111.4C574.376 107.336 540.744 97.704 539.576 99.704C538.408 101.704 542.04 115.432 551.096 120.136Z" fill="#DBDBDB"/>
<path d="M564.536 87.992C564.536 87.992 576.488 105.224 583.736 106.76C590.984 108.296 603.8 93.4 599.96 91.624C596.12 89.848 571.8 85.032 564.536 87.992Z" fill="#DBDBDB"/>
<path d="M628.264 108.056C628.264 108.056 601.192 110.568 601.192 114.456C601.192 118.344 633.72 130.104 635.4 128.296C637.08 126.488 636.536 113.208 628.264 108.056Z" fill="#DBDBDB"/>
<path d="M613.016 137.384C613.016 137.384 599.416 120.248 592.216 118.952C585.016 117.656 574.136 133.352 578.024 134.952C581.912 136.552 606.248 140.648 613.016 137.384Z" fill="#DBDBDB"/>
<path d="M55.432 334.808C33.512 331.496 7.144 315.432 0.600001 294.2C-0.807999 289.624 2.312 281.672 3.8 278.376C9.544 266.312 29.4 266.728 46.312 269.336C67.8 272.6 98.728 288.232 103.768 308.392C105 313.304 106.488 315.672 104.632 319.752C99.928 330.2 83.08 339 55.432 334.808Z" fill="#C7C7C7"/>
<path d="M58.456 330.104C36.52 326.776 10.2 310.712 3.608 289.48C-2.984 268.248 27.896 261.288 49.384 264.6C70.872 267.912 101.752 283.496 106.792 303.672C111.16 321.16 96.904 335.928 58.456 330.104Z" fill="#DBDBDB"/>
<path d="M57.992 324.168C40.072 321.448 18.536 308.328 13.192 290.968C7.84799 273.608 33.048 267.944 50.6 270.664C68.152 273.384 93.384 286.104 97.496 302.664C101.048 316.856 89.4 328.92 57.992 324.168Z" fill="#EBEBEB"/>
<path d="M73.8 308.456C74.136 307.48 80.296 308.84 79.528 310.664C78.856 312.184 73.352 309.736 73.8 308.456Z" fill="white"/>
<path d="M65.608 289.256C64.104 288.44 65.608 284.92 68.424 286.536C70.776 287.88 67.56 290.296 65.608 289.256Z" fill="white"/>
<path d="M80.6 292.936C79.752 291.816 84.296 290.136 85.816 292.28C87 294.088 81.656 294.392 80.6 292.936Z" fill="white"/>
<path d="M80.856 315.8C82.296 315.56 86.488 319.4 83.688 319.768C81.336 320.056 79 316.088 80.856 315.8Z" fill="white"/>
<path d="M44.456 309.4C45.832 310.328 43.4 313.448 40.856 311.624C38.728 310.072 42.68 308.168 44.456 309.4Z" fill="white"/>
<path d="M32.6 284.328C32.184 285.272 26.04 283.768 26.936 281.992C27.624 280.488 33.048 283.08 32.6 284.328Z" fill="white"/>
<path d="M42.2 282.984C41.112 283.576 35.704 280.472 37.88 279.432C39.656 278.568 43.56 282.2 42.2 282.984Z" fill="white"/>
<path d="M49.032 301.224C50.632 301.688 51.4 305.8 48.232 304.824C47.7546 304.718 47.3389 304.427 47.0764 304.014C46.8138 303.601 46.7259 303.101 46.832 302.624C46.9381 302.147 47.2295 301.731 47.6421 301.468C48.0546 301.206 48.5546 301.118 49.032 301.224Z" fill="white"/>
<path d="M20.888 306.696C20.888 306.696 46.072 301.4 45.176 296.6C44.28 291.8 10.728 280.008 9.544 282.36C8.36 284.712 11.88 301.032 20.888 306.696Z" fill="#DBDBDB"/>
<path d="M34.616 268.68C34.616 268.68 46.424 289.272 53.656 291.08C60.888 292.888 73.752 275.352 69.992 273.272C66.232 271.192 41.88 265.256 34.616 268.68Z" fill="#DBDBDB"/>
<path d="M98.2 293.144C98.2 293.144 71 295.848 71 300.52C71 305.192 103.384 319.416 105.08 317.288C106.776 315.16 106.376 299.336 98.2 293.144Z" fill="#DBDBDB"/>
<path d="M82.664 327.784C82.664 327.784 69.208 307.32 61.96 305.704C54.712 304.088 43.8 322.6 47.64 324.552C51.48 326.504 75.8 331.592 82.664 327.784Z" fill="#DBDBDB"/>
<path d="M560.04 348.952L559.88 353.992C559.892 353.594 559.854 353.197 559.768 352.808C558.008 344.888 534.472 339 503.496 343.208C474.024 347.24 454.84 358.12 454.568 365.992L454.744 360.952C455 353.112 474.2 342.232 503.672 338.2C534.648 333.96 558.184 339.8 559.944 347.8C560.022 348.179 560.055 348.566 560.04 348.952Z" fill="#DBDBDB"/>
<path d="M502.376 332.344C535.848 327.768 564.28 334.104 567.096 346.744C569.912 359.384 545.896 372.968 512.408 377.544C478.92 382.12 450.504 375.784 447.688 363.144C444.872 350.504 468.904 336.936 502.376 332.344ZM511.112 371.8C542.088 367.56 561.704 355.8 559.944 347.8C558.184 339.8 534.648 333.976 503.672 338.2C472.696 342.424 453.08 354.2 454.84 362.2C456.6 370.2 480.152 376.008 511.112 371.8Z" fill="#EBEBEB"/>
<path d="M567.32 349.144L567.144 354.184C566.744 366.152 543.656 378.344 512.248 382.648C478.776 387.224 450.344 380.872 447.528 368.248C447.351 367.477 447.275 366.686 447.304 365.896L447.464 360.856C447.443 361.646 447.519 362.436 447.688 363.208C450.504 375.896 478.952 382.248 512.408 377.608C543.832 373.288 567 361.112 567.32 349.144Z" fill="#DBDBDB"/>
<path d="M623.288 313.288L620.744 318.6C620.938 318.181 621.083 317.74 621.176 317.288C623 307.976 600.6 290.584 565.4 280.6C531.928 271 506.2 273.672 502.264 281.976L504.824 276.664C508.808 268.344 534.488 265.72 567.944 275.272C603.144 285.32 625.544 302.696 623.704 312.072C623.611 312.492 623.471 312.899 623.288 313.288Z" fill="#DBDBDB"/>
<path d="M569.352 268.36C607.352 279.208 634.808 299.384 631.864 314.296C628.92 329.208 596.808 332.392 558.808 321.544C520.808 310.696 493.4 290.52 496.296 275.592C499.192 260.664 531.352 257.512 569.352 268.36ZM560.168 314.664C595.368 324.696 621.88 321.304 623.736 311.976C625.592 302.648 603.144 285.272 567.976 275.176C532.808 265.08 506.264 268.552 504.424 277.864C502.584 287.176 525 304.584 560.168 314.664Z" fill="#EBEBEB"/>
<path d="M631 316.92L628.44 322.248C622.376 334.872 591.928 337.048 556.264 326.872C518.264 316.024 490.792 295.832 493.752 280.92C493.931 280.011 494.227 279.129 494.632 278.296L497.176 272.984C496.774 273.811 496.483 274.688 496.312 275.592C493.352 290.52 520.824 310.696 558.824 321.544C594.472 331.8 624.92 329.544 631 316.92Z" fill="#DBDBDB"/>
<path d="M190.44 509.288L191.576 515.08C191.498 514.624 191.352 514.182 191.144 513.768C187.048 505.192 158.664 504.728 124.504 517.768C91.976 530.168 73.016 547.656 74.792 556.712L73.656 551C71.864 541.944 90.84 524.472 123.352 512.056C157.512 499.016 185.896 499.48 190.008 508.056C190.196 508.45 190.341 508.863 190.44 509.288Z" fill="#DBDBDB"/>
<path d="M120.328 505.656C157.256 491.56 191.336 491.256 197.896 504.968C204.456 518.68 180.696 540.456 143.768 554.568C106.84 568.68 72.76 568.968 66.184 555.256C59.608 541.544 83.416 519.752 120.328 505.656ZM140.728 548.232C174.888 535.192 194.12 516.552 190.008 507.976C185.896 499.4 157.512 498.936 123.352 511.976C89.192 525.016 69.976 543.656 74.088 552.232C78.2 560.808 106.568 561.272 140.728 548.232Z" fill="#EBEBEB"/>
<path d="M198.776 507.592L199.912 513.384C202.632 527.128 179.56 547.112 144.904 560.344C107.992 574.44 73.912 574.744 67.336 561.032C66.9288 560.2 66.633 559.318 66.456 558.408L65.32 552.6C65.4986 553.507 65.7888 554.388 66.184 555.224C72.76 568.936 106.84 568.632 143.768 554.536C178.424 541.4 201.48 521.336 198.776 507.592Z" fill="#DBDBDB"/>
<path d="M319 679.32C413.569 679.32 490.232 672.071 490.232 663.128C490.232 654.185 413.569 646.936 319 646.936C224.431 646.936 147.768 654.185 147.768 663.128C147.768 672.071 224.431 679.32 319 679.32Z" fill="#EBEBEB"/>
<path d="M525.992 629.128C492.264 652.392 413.624 664.952 323.192 658.6C232.76 652.248 156.696 628.84 126.552 601C116.76 586.328 116.232 561.96 123.8 553.864C123.883 553.771 123.974 553.685 124.072 553.608L125.16 552.696C155.56 526.984 237.72 512.696 332.984 519.384C428.248 526.072 507.384 551.64 533.96 581.272L535.224 582.712C535.268 582.737 535.302 582.777 535.32 582.824C541.624 591.976 537.704 615.976 525.992 629.128Z" fill="#FFB996"/>
<path opacity="0.2" d="M525.992 629.128C492.264 652.392 413.624 664.952 323.192 658.6C232.76 652.248 156.696 628.84 126.552 601C116.76 586.328 116.232 561.96 123.8 553.864C123.883 553.771 123.974 553.685 124.072 553.608L125.16 552.696C155.56 526.984 237.72 512.696 332.984 519.384C428.248 526.072 507.384 551.64 533.96 581.272L535.224 582.712C535.268 582.737 535.302 582.777 535.32 582.824C541.624 591.976 537.704 615.976 525.992 629.128Z" fill="black"/>
<path d="M525.992 629.128C524.626 630.683 523.11 632.097 521.464 633.352C493.96 653.96 408.52 669.8 322.84 663.752C237.16 657.704 154.84 630.152 130.44 605.848C128.978 604.39 127.674 602.781 126.552 601.048C116.76 586.376 116.232 562.008 123.8 553.912C123.883 553.819 123.974 553.733 124.072 553.656L125.16 552.744C127.544 550.968 130.568 550.632 134.2 552.312C153 560.904 227.848 600.456 326.792 607.416C425.736 614.376 505.4 585.672 525.192 579.784C526.654 579.217 528.244 579.066 529.786 579.349C531.328 579.631 532.762 580.336 533.928 581.384L535.192 582.824C535.236 582.849 535.27 582.889 535.288 582.936C541.624 591.976 537.704 615.976 525.992 629.128Z" fill="#FFB996"/>
<path opacity="0.3" d="M525.992 629.128C524.626 630.683 523.11 632.097 521.464 633.352C493.96 653.96 408.52 669.8 322.84 663.752C237.16 657.704 154.84 630.152 130.44 605.848C128.978 604.39 127.674 602.781 126.552 601.048C116.76 586.376 116.232 562.008 123.8 553.912C123.883 553.819 123.974 553.733 124.072 553.656L125.16 552.744C127.544 550.968 130.568 550.632 134.2 552.312C153 560.904 227.848 600.456 326.792 607.416C425.736 614.376 505.4 585.672 525.192 579.784C526.654 579.217 528.244 579.066 529.786 579.349C531.328 579.631 532.762 580.336 533.928 581.384L535.192 582.824C535.236 582.849 535.27 582.889 535.288 582.936C541.624 591.976 537.704 615.976 525.992 629.128Z" fill="black"/>
<path opacity="0.5" d="M493.24 583.544C501.986 578.916 511.541 576.015 521.384 575C512.888 580.208 503.198 583.15 493.24 583.544Z" fill="white"/>
<path opacity="0.5" d="M431.288 595.8C448.32 591.404 465.636 588.196 483.112 586.2C466.558 592.502 449.001 595.754 431.288 595.8Z" fill="white"/>
<path opacity="0.5" d="M240.6 580.44C250.904 584.44 261.752 586.744 272.6 588.92C290.647 592.411 308.872 594.917 327.192 596.424C349.189 598.261 371.27 598.891 393.336 598.312H398.856C404.168 598.056 410.136 597.768 415.448 597.608C371.363 603.489 326.611 602.078 282.984 593.432C268.584 590.36 253.96 586.952 240.648 580.504L240.6 580.44Z" fill="white"/>
<g opacity="0.1">
<path d="M474.2 571.32C471.24 574.744 463.896 577.832 446.872 579.608C408.618 583.816 370.066 584.604 331.672 581.96C292.377 579.277 253.383 573.25 215.112 563.944C188.344 557.64 184.296 551.352 183.928 545.896C183.734 544.61 183.846 543.297 184.255 542.063C184.663 540.829 185.357 539.708 186.28 538.792C189.208 535.336 196.536 532.232 213.656 530.456C251.91 526.248 290.462 525.455 328.856 528.088C368.147 530.811 407.136 536.871 445.4 546.2C472.168 552.488 476.216 558.792 476.568 564.248C476.751 565.53 476.632 566.836 476.221 568.064C475.81 569.292 475.118 570.407 474.2 571.32Z" fill="black"/>
</g>
<path d="M546.696 499.8C543.688 507.624 534.744 516.104 512.568 525.096C478.424 538.872 428.536 557.096 359.672 566.52C290.808 575.944 236.824 571.752 199.48 567.64C162.136 563.528 154.984 552.296 153.08 541.512C152.12 536.2 152.04 531.08 154.296 526.552C157.24 518.712 166.168 510.2 188.472 501.16C222.616 487.384 272.504 469.16 341.352 459.736C410.2 450.312 464.2 454.52 501.576 458.616C538.952 462.712 546.056 473.944 547.976 484.744C548.904 490.008 549 495.176 546.696 499.8Z" fill="#FFB996"/>
<g opacity="0.5">
<path d="M546.696 499.8C543.688 507.624 534.744 516.104 512.568 525.096C478.424 538.872 428.536 557.096 359.672 566.52C290.808 575.944 236.824 571.752 199.48 567.64C162.136 563.528 154.984 552.296 153.08 541.512C152.12 536.2 152.04 531.08 154.296 526.552C157.24 518.712 166.168 510.2 188.472 501.16C222.616 487.384 272.504 469.16 341.352 459.736C410.2 450.312 464.2 454.52 501.576 458.616C538.952 462.712 546.056 473.944 547.976 484.744C548.904 490.008 549 495.176 546.696 499.8Z" fill="black"/>
</g>
<g opacity="0.1">
<path d="M493.064 479.64C490.76 483.928 483.88 488.76 466.856 494.264C428.616 506.846 389.298 515.877 349.4 521.24C308.61 526.722 267.415 528.585 226.296 526.808C197.576 525.8 192.088 519.96 190.568 514.232C190.109 512.915 189.955 511.511 190.115 510.126C190.276 508.74 190.748 507.409 191.496 506.232C193.752 501.928 200.6 497.08 217.736 491.544C255.976 478.962 295.294 469.931 335.192 464.568C375.988 459.085 417.188 457.222 458.312 459C487.016 460.008 492.504 465.848 494.008 471.576C494.472 472.904 494.628 474.32 494.465 475.717C494.301 477.114 493.822 478.455 493.064 479.64Z" fill="black"/>
</g>
<path opacity="0.2" d="M163.24 526.04C167.097 526.772 170.999 527.242 174.92 527.448C202.312 529.352 229.832 529.336 257.256 528.616C284.68 527.896 312.136 526.088 339.32 522.712C389.736 515.656 440.248 507.32 489.304 493.56C496.824 491.384 504.312 489.032 511.592 486.152C518.872 483.272 526.344 480.184 531.704 474.392C526.584 480.44 519 483.736 511.928 486.92C475.448 501.736 436.488 509.32 397.944 516.616C328.359 530.072 257.298 534.247 186.616 529.032C178.824 528.312 170.888 527.864 163.24 526.04Z" fill="black"/>
<g opacity="0.2">
<path d="M192.488 509.4C213.447 498.47 235.383 489.524 258.008 482.68C237.048 493.607 215.112 502.553 192.488 509.4Z" fill="black"/>
<path d="M434.36 498.648C455.32 487.716 477.255 478.765 499.88 471.912C478.917 482.838 456.982 491.788 434.36 498.648Z" fill="black"/>
<path d="M197.832 519.784C237.513 501.232 278.097 484.678 319.432 470.184C279.756 488.745 239.171 505.299 197.832 519.784Z" fill="black"/>
<path d="M345.368 516.392C385.049 497.84 425.633 481.286 466.968 466.792C427.292 485.353 386.707 501.907 345.368 516.392Z" fill="black"/>
<path d="M284.088 520.6C331.192 499 379.149 479.427 427.96 461.88C380.92 483.448 332.963 503.021 284.088 520.6Z" fill="black"/>
<path d="M231.72 522.408C281.128 499.891 331.384 479.389 382.488 460.904C333.091 483.443 282.835 503.944 231.72 522.408Z" fill="black"/>
</g>
<g opacity="0.5">
<path d="M330.28 556.232C398.248 548.856 466.28 534.072 528.248 504.52C494.648 523.72 457.448 536.28 419.704 544.696C390.313 551.274 360.379 555.135 330.28 556.232Z" fill="white"/>
<path d="M165.16 533C192.31 536.273 219.664 537.541 247 536.792C250.92 536.792 254.808 536.504 258.728 536.456C227.563 539.991 196.043 538.826 165.224 533H165.16Z" fill="white"/>
</g>
<path d="M567 474.392C565.08 470.28 519 442.008 470.024 432.248C426.52 423.592 381.944 416.248 367.224 416.536C353.816 416.808 315.784 424.328 276.472 433.48C253.272 438.872 229.304 448.12 209.624 457.16C210.006 457.254 210.362 457.434 210.664 457.687C210.966 457.939 211.207 458.257 211.368 458.616C212.184 460.776 209.08 463.944 204.424 465.704C199.768 467.464 195.352 467.128 194.52 464.984C194.456 464.826 194.419 464.658 194.408 464.488C177.816 472.92 166.696 480.056 165.864 482.008C164.264 485.848 224.328 481.656 270.648 492.84C319.528 504.616 355.064 531.704 367.448 531.48C379.832 531.256 420.248 502.68 468.6 489.016C472.088 488.04 475.64 487.144 479.208 486.312C479.336 482.696 483.56 478.952 489.432 477.56C495.944 475.96 501.96 477.96 502.92 481.912C537.736 476.744 568.328 477.24 567 474.392ZM258.2 463.976C253.048 463.976 248.824 461.528 248.824 458.472C248.824 455.416 252.984 452.92 258.168 452.888C263.352 452.856 267.544 455.336 267.544 458.392C267.544 461.448 263.352 463.944 258.2 463.976ZM298.456 461.944C288.104 463.928 278.92 461.384 277.944 456.264C276.968 451.144 284.584 445.416 294.936 443.464C305.288 441.512 314.472 444.024 315.448 449.144C316.424 454.264 308.776 459.976 298.424 461.944H298.456ZM397.656 503.656C395.16 504.12 392.856 503.176 392.584 501.56C392.312 499.944 394.04 498.216 396.536 497.752C399.032 497.288 401.336 498.2 401.608 499.832C401.88 501.464 400.12 503.16 397.624 503.656H397.656ZM473.416 444.904C469.848 444.152 467.336 441.816 467.784 439.72C468.232 437.624 471.48 436.52 475.032 437.288C478.584 438.056 481.112 440.36 480.664 442.456C480.216 444.552 476.936 445.656 473.384 444.904H473.416Z" fill="#FFB996"/>
<path opacity="0.2" d="M567 474.392C565.08 470.28 519 442.008 470.024 432.248C426.52 423.592 381.944 416.248 367.224 416.536C353.816 416.808 315.784 424.328 276.472 433.48C253.272 438.872 229.304 448.12 209.624 457.16C210.006 457.254 210.362 457.434 210.664 457.687C210.966 457.939 211.207 458.257 211.368 458.616C212.184 460.776 209.08 463.944 204.424 465.704C199.768 467.464 195.352 467.128 194.52 464.984C194.456 464.826 194.419 464.658 194.408 464.488C177.816 472.92 166.696 480.056 165.864 482.008C164.264 485.848 224.328 481.656 270.648 492.84C319.528 504.616 355.064 531.704 367.448 531.48C379.832 531.256 420.248 502.68 468.6 489.016C472.088 488.04 475.64 487.144 479.208 486.312C479.336 482.696 483.56 478.952 489.432 477.56C495.944 475.96 501.96 477.96 502.92 481.912C537.736 476.744 568.328 477.24 567 474.392ZM258.2 463.976C253.048 463.976 248.824 461.528 248.824 458.472C248.824 455.416 252.984 452.92 258.168 452.888C263.352 452.856 267.544 455.336 267.544 458.392C267.544 461.448 263.352 463.944 258.2 463.976ZM298.456 461.944C288.104 463.928 278.92 461.384 277.944 456.264C276.968 451.144 284.584 445.416 294.936 443.464C305.288 441.512 314.472 444.024 315.448 449.144C316.424 454.264 308.776 459.976 298.424 461.944H298.456ZM397.656 503.656C395.16 504.12 392.856 503.176 392.584 501.56C392.312 499.944 394.04 498.216 396.536 497.752C399.032 497.288 401.336 498.2 401.608 499.832C401.88 501.464 400.12 503.16 397.624 503.656H397.656ZM473.416 444.904C469.848 444.152 467.336 441.816 467.784 439.72C468.232 437.624 471.48 436.52 475.032 437.288C478.584 438.056 481.112 440.36 480.664 442.456C480.216 444.552 476.936 445.656 473.384 444.904H473.416Z" fill="white"/>
<path opacity="0.1" d="M315.416 449.128C314.44 444.008 305.24 441.48 294.904 443.448C284.904 445.352 277.496 450.776 277.864 455.736C276.856 448.072 284.12 443.656 292.84 441.24C301.56 438.824 314.392 441.944 315.416 449.128Z" fill="black"/>
<path opacity="0.1" d="M267.512 458.392C267.512 455.336 263.288 452.872 258.136 452.888C252.984 452.904 248.776 455.416 248.792 458.472C248.792 458.472 247.656 451.864 258.392 451.192C269.128 450.52 267.512 458.392 267.512 458.392Z" fill="black"/>
<path opacity="0.1" d="M401.432 499.432C400.872 498.056 398.76 497.304 396.504 497.832C394.248 498.36 392.232 500.008 392.552 501.64C392.552 501.64 391.736 498.792 395.48 497.288C399.224 495.784 401.304 498.2 401.432 499.432Z" fill="black"/>
<path opacity="0.1" d="M479.816 439.88C478.539 438.519 476.854 437.61 475.016 437.288C471.464 436.52 468.2 437.624 467.768 439.72C467.696 440.175 467.728 440.639 467.861 441.08C467.994 441.52 468.225 441.925 468.536 442.264C466.6 440.472 466.168 436.632 470.792 435.704C475.416 434.776 479 437.4 479.816 439.88Z" fill="black"/>
<g opacity="0.5">
<path d="M245.816 459.4C248.52 466.328 261.704 467.72 267.064 463.288C268.04 462.624 268.745 461.629 269.048 460.488C269.03 461.754 268.512 462.962 267.608 463.848C262.472 469.944 247.016 467.976 245.816 459.4Z" fill="white"/>
<path d="M276.424 458.44C282.12 468.456 309.352 465.448 315.352 456.84C316.633 455.214 317.396 453.241 317.544 451.176C317.678 453.332 317.118 455.474 315.944 457.288C309.976 467.512 281.608 470.44 276.376 458.472L276.424 458.44Z" fill="white"/>
<path d="M390.216 501.56C390.88 502.635 391.831 503.505 392.961 504.07C394.092 504.635 395.357 504.874 396.616 504.76C398.538 504.503 400.368 503.778 401.944 502.648C402.488 502.264 403.016 501.848 403.544 501.48C403.144 502.04 402.696 502.552 402.248 503.08C400.782 504.668 398.795 505.679 396.648 505.928C393.896 506.168 390.456 504.328 390.104 501.464L390.216 501.56Z" fill="white"/>
<path d="M464.6 438.872C464.472 442.936 468.472 445.704 472.072 446.52C475.672 447.336 480.6 447.864 482.488 444.008C482.302 445.048 481.731 445.979 480.888 446.616C475.336 450.472 463.16 446.776 464.6 438.872Z" fill="white"/>
<path d="M175.272 479.96C208.136 480.648 241.368 480.824 273.672 487.576C292.872 492.376 310.968 500.888 329.128 508.568L347.208 516.568C354.104 519.272 360.952 523.16 368.216 524.28C373.449 522.639 378.579 520.684 383.576 518.424L401.768 510.744C426.088 500.744 450.504 490.328 476.248 484.616C463.478 487.815 450.946 491.9 438.744 496.84C421.032 503.64 401.656 512.152 384.12 519.704C379.198 521.936 374.156 523.891 369.016 525.56C367.691 525.798 366.326 525.676 365.064 525.208C358.792 523.11 352.629 520.696 346.6 517.976C316.568 505.576 286.68 488.936 253.992 485.496C227.912 481.992 201.56 480.984 175.272 480.008V479.96Z" fill="white"/>
<path d="M505.96 477.864C523.256 475.288 540.792 473.208 558.296 474.008C540.856 475.4 523.464 477.448 505.96 477.864Z" fill="white"/>
</g>
<path d="M207.72 440.968L204.744 447C204.969 446.524 205.141 446.025 205.256 445.512C207.464 434.84 181.912 414.712 141.704 402.888C103.448 391.688 74.008 394.408 69.352 403.896L72.328 397.816C76.984 388.328 106.424 385.56 144.68 396.808C184.888 408.648 210.44 428.808 208.232 439.432C208.122 439.962 207.95 440.478 207.72 440.968Z" fill="#FFB996"/>
<g opacity="0.4">
<path d="M207.72 440.968L204.744 447C204.969 446.524 205.141 446.025 205.256 445.512C207.464 434.84 181.912 414.712 141.704 402.888C103.448 391.688 74.008 394.408 69.352 403.896L72.328 397.816C76.984 388.328 106.424 385.56 144.68 396.808C184.888 408.648 210.44 428.808 208.232 439.432C208.122 439.962 207.95 440.478 207.72 440.968Z" fill="white"/>
</g>
<path d="M146.312 388.984C189.768 401.784 221.048 425.16 217.528 442.2C214.008 459.24 177.192 462.616 133.736 449.832C90.28 437.048 59 413.672 62.52 396.6C66.04 379.528 102.872 376.2 146.312 388.984ZM135.368 441.96C175.56 453.784 206.024 450.152 208.232 439.464C210.44 428.776 184.888 408.68 144.68 396.84C104.472 385 74.024 388.68 71.816 399.336C69.608 409.992 95.16 430.136 135.368 441.96Z" fill="#FFB996"/>
<g opacity="0.7">
<path d="M146.312 388.984C189.768 401.784 221.048 425.16 217.528 442.2C214.008 459.24 177.192 462.616 133.736 449.832C90.28 437.048 59 413.672 62.52 396.6C66.04 379.528 102.872 376.2 146.312 388.984ZM135.368 441.96C175.56 453.784 206.024 450.152 208.232 439.464C210.44 428.776 184.888 408.68 144.68 396.84C104.472 385 74.024 388.68 71.816 399.336C69.608 409.992 95.16 430.136 135.368 441.96Z" fill="white"/>
</g>
<path d="M216.488 445.208L213.512 451.272C206.456 465.672 171.528 467.912 130.76 455.912C87.32 443.112 56.024 419.752 59.544 402.68C59.7594 401.644 60.1034 400.639 60.568 399.688L63.544 393.608C63.0818 394.56 62.7379 395.565 62.52 396.6C59 413.672 90.296 437.064 133.736 449.832C174.52 461.832 209.432 459.624 216.488 445.208Z" fill="#FFB996"/>
<g opacity="0.4">
<path d="M216.488 445.208L213.512 451.272C206.456 465.672 171.528 467.912 130.76 455.912C87.32 443.112 56.024 419.752 59.544 402.68C59.7594 401.644 60.1034 400.639 60.568 399.688L63.544 393.608C63.0818 394.56 62.7379 395.565 62.52 396.6C59 413.672 90.296 437.064 133.736 449.832C174.52 461.832 209.432 459.624 216.488 445.208Z" fill="white"/>
</g>
<path d="M456.056 434.296L455.576 441.032C455.625 440.498 455.598 439.959 455.496 439.432C453.512 428.712 422.264 419.704 380.568 423.912C340.888 427.928 314.664 441.592 313.928 452.136L314.408 445.384C315.128 434.84 341.352 421.176 381.032 417.176C422.728 412.952 453.976 421.976 455.96 432.68C456.059 433.213 456.091 433.755 456.056 434.296Z" fill="#FFB996"/>
<g opacity="0.4">
<path d="M456.056 434.296L455.576 441.032C455.625 440.498 455.598 439.959 455.496 439.432C453.512 428.712 422.264 419.704 380.568 423.912C340.888 427.928 314.664 441.592 313.928 452.136L314.408 445.384C315.128 434.84 341.352 421.176 381.032 417.176C422.728 412.952 453.976 421.976 455.96 432.68C456.059 433.213 456.091 433.755 456.056 434.296Z" fill="white"/>
</g>
<path d="M379.576 409.304C424.648 404.76 462.424 414.616 465.592 431.704C468.76 448.792 435.96 465.832 390.872 470.376C345.784 474.92 308.024 465.064 304.856 447.976C301.688 430.888 334.52 413.864 379.576 409.304ZM389.4 462.504C431.096 458.296 457.928 443.432 455.944 432.712C453.96 421.992 422.712 412.984 381.016 417.208C339.32 421.432 312.504 436.296 314.488 447C316.472 457.704 347.8 466.712 389.4 462.504Z" fill="#FFB996"/>
<g opacity="0.7">
<path d="M379.576 409.304C424.648 404.76 462.424 414.616 465.592 431.704C468.76 448.792 435.96 465.832 390.872 470.376C345.784 474.92 308.024 465.064 304.856 447.976C301.688 430.888 334.52 413.864 379.576 409.304ZM389.4 462.504C431.096 458.296 457.928 443.432 455.944 432.712C453.96 421.992 422.712 412.984 381.016 417.208C339.32 421.432 312.504 436.296 314.488 447C316.472 457.704 347.8 466.712 389.4 462.504Z" fill="white"/>
</g>
<path d="M465.784 434.904L465.32 441.656C464.2 457.656 432.712 472.888 390.408 477.16C345.352 481.704 307.56 471.848 304.392 454.76C304.197 453.705 304.133 452.631 304.2 451.56L304.68 444.808C304.6 445.878 304.659 446.953 304.856 448.008C308.056 465.128 345.832 475 390.872 470.408C433.176 466.2 464.68 450.92 465.784 434.904Z" fill="#FFB996"/>
<g opacity="0.4">
<path d="M465.784 434.904L465.32 441.656C464.2 457.656 432.712 472.888 390.408 477.16C345.352 481.704 307.56 471.848 304.392 454.76C304.197 453.705 304.133 452.631 304.2 451.56L304.68 444.808C304.6 445.878 304.659 446.953 304.856 448.008C308.056 465.128 345.832 475 390.872 470.408C433.176 466.2 464.68 450.92 465.784 434.904Z" fill="white"/>
</g>
<path d="M348.136 474.2L347.192 480.888C347.257 480.357 347.257 479.819 347.192 479.288C346.008 468.472 315.496 457.208 273.592 458.36C233.72 459.448 206.568 471.16 205.064 481.64L206.024 474.936C207.528 464.472 234.68 452.76 274.552 451.656C316.44 450.504 346.952 461.768 348.152 472.6C348.22 473.132 348.215 473.67 348.136 474.2Z" fill="#FFB996"/>
<g opacity="0.4">
<path d="M348.136 474.2L347.192 480.888C347.257 480.357 347.257 479.819 347.192 479.288C346.008 468.472 315.496 457.208 273.592 458.36C233.72 459.448 206.568 471.16 205.064 481.64L206.024 474.936C207.528 464.472 234.68 452.76 274.552 451.656C316.44 450.504 346.952 461.768 348.152 472.6C348.22 473.132 348.215 473.67 348.136 474.2Z" fill="white"/>
</g>
<path d="M273.704 443.64C318.984 442.392 355.944 454.984 357.848 472.28C359.752 489.576 325.848 504.152 280.504 505.4C235.16 506.648 198.264 494.056 196.36 476.728C194.456 459.4 228.424 444.888 273.704 443.64ZM279.624 497.4C321.512 496.248 349.368 483.384 348.168 472.552C346.968 461.72 316.472 450.456 274.568 451.608C232.664 452.76 204.824 465.64 206.024 476.472C207.224 487.304 237.72 498.568 279.624 497.4Z" fill="#FFB996"/>
<g opacity="0.7">
<path d="M273.704 443.64C318.984 442.392 355.944 454.984 357.848 472.28C359.752 489.576 325.848 504.152 280.504 505.4C235.16 506.648 198.264 494.056 196.36 476.728C194.456 459.4 228.424 444.888 273.704 443.64ZM279.624 497.4C321.512 496.248 349.368 483.384 348.168 472.552C346.968 461.72 316.472 450.456 274.568 451.608C232.664 452.76 204.824 465.64 206.024 476.472C207.224 487.304 237.72 498.568 279.624 497.4Z" fill="white"/>
</g>
<path d="M357.8 475.448L356.84 482.152C354.568 498.04 322.04 510.952 279.544 512.088C234.28 513.336 197.304 500.744 195.4 483.432C195.253 482.37 195.253 481.294 195.4 480.232L196.36 473.544C196.212 474.606 196.212 475.683 196.36 476.744C198.264 494.072 235.24 506.664 280.504 505.416C323 504.232 355.528 491.352 357.8 475.448Z" fill="#FFB996"/>
<g opacity="0.4">
<path d="M357.8 475.448L356.84 482.152C354.568 498.04 322.04 510.952 279.544 512.088C234.28 513.336 197.304 500.744 195.4 483.432C195.253 482.37 195.253 481.294 195.4 480.232L196.36 473.544C196.212 474.606 196.212 475.683 196.36 476.744C198.264 494.072 235.24 506.664 280.504 505.416C323 504.232 355.528 491.352 357.8 475.448Z" fill="white"/>
</g>
<path d="M568.792 464.456L566.536 470.856C566.714 470.339 566.827 469.801 566.872 469.256C567.832 458.424 540.12 441.384 498.808 434.312C459.496 427.576 430.584 433.736 427.064 443.704L429.32 437.304C432.824 427.352 461.752 421.176 501.064 427.912C542.36 434.984 570.072 452.024 569.128 462.872C569.085 463.412 568.972 463.945 568.792 464.456Z" fill="#FFB996"/>
<g opacity="0.4">
<path d="M568.792 464.456L566.536 470.856C566.714 470.339 566.827 469.801 566.872 469.256C567.832 458.424 540.12 441.384 498.808 434.312C459.496 427.576 430.584 433.736 427.064 443.704L429.32 437.304C432.824 427.352 461.752 421.176 501.064 427.912C542.36 434.984 570.072 452.024 569.128 462.872C569.085 463.412 568.972 463.945 568.792 464.456Z" fill="white"/>
</g>
<path d="M501.768 419.96C546.408 427.624 580.168 447.16 578.68 464.552C577.192 481.944 540.984 489.512 496.344 481.864C451.704 474.216 417.944 454.664 419.432 437.272C420.92 419.88 457.128 412.312 501.768 419.96ZM496.968 473.864C538.264 480.936 568.088 473.784 569.048 462.92C570.008 452.056 542.28 435.032 500.984 427.96C459.688 420.888 429.848 428.056 428.904 438.904C427.96 449.752 455.656 466.776 496.968 473.864Z" fill="#FFB996"/>
<g opacity="0.7">
<path d="M501.768 419.96C546.408 427.624 580.168 447.16 578.68 464.552C577.192 481.944 540.984 489.512 496.344 481.864C451.704 474.216 417.944 454.664 419.432 437.272C420.92 419.88 457.128 412.312 501.768 419.96ZM496.968 473.864C538.264 480.936 568.088 473.784 569.048 462.92C570.008 452.056 542.28 435.032 500.984 427.96C459.688 420.888 429.848 428.056 428.904 438.904C427.96 449.752 455.656 466.776 496.968 473.864Z" fill="white"/>
</g>
<path d="M578.008 467.656L575.752 474.056C570.408 489.208 535.976 495.464 494.152 488.28C449.512 480.632 415.752 461.08 417.24 443.672C417.333 442.618 417.558 441.581 417.912 440.584L420.168 434.184C419.814 435.186 419.589 436.229 419.496 437.288C417.976 454.648 451.768 474.232 496.408 481.88C538.2 489.048 572.664 482.792 578.008 467.656Z" fill="#FFB996"/>
<g opacity="0.4">
<path d="M578.008 467.656L575.752 474.056C570.408 489.208 535.976 495.464 494.152 488.28C449.512 480.632 415.752 461.08 417.24 443.672C417.333 442.618 417.558 441.581 417.912 440.584L420.168 434.184C419.814 435.186 419.589 436.229 419.496 437.288C417.976 454.648 451.768 474.232 496.408 481.88C538.2 489.048 572.664 482.792 578.008 467.656Z" fill="white"/>
</g>
<path d="M513.32 422.184C508.664 429.144 498.056 435.448 474.44 439.32C438.104 445.208 385.4 452.04 316.184 445.96C246.968 439.88 195.208 423.928 159.688 411.672C124.168 399.416 119.688 386.888 120.136 375.928C120.376 370.536 121.432 365.512 124.632 361.608C129.24 354.616 139.816 348.264 163.576 344.392C199.912 338.488 252.616 331.592 321.816 337.752C391.016 343.912 442.792 359.784 478.328 372.024C513.864 384.264 518.328 396.824 517.864 407.768C517.624 413.208 516.552 418.2 513.32 422.184Z" fill="#FFB996"/>
<g opacity="0.5">
<path d="M513.32 422.184C508.664 429.144 498.056 435.448 474.44 439.32C438.104 445.208 385.4 452.04 316.184 445.96C246.968 439.88 195.208 423.928 159.688 411.672C124.168 399.416 119.688 386.888 120.136 375.928C120.376 370.536 121.432 365.512 124.632 361.608C129.24 354.616 139.816 348.264 163.576 344.392C199.912 338.488 252.616 331.592 321.816 337.752C391.016 343.912 442.792 359.784 478.328 372.024C513.864 384.264 518.328 396.824 517.864 407.768C517.624 413.208 516.552 418.2 513.32 422.184Z" fill="black"/>
</g>
<g opacity="0.1">
<path d="M463.432 386.056C460.664 388.76 453.832 391.032 437.832 391.944C401.836 394.152 365.722 393.569 329.816 390.2C292.977 386.757 256.441 380.607 220.504 371.8C195.416 365.816 191.608 360.6 191.256 356.104C191.075 355.041 191.185 353.95 191.574 352.944C191.963 351.939 192.616 351.057 193.464 350.392C196.184 347.672 203.064 345.384 219.064 344.472C255.071 342.265 291.194 342.843 327.112 346.2C363.95 349.646 400.485 355.79 436.424 364.584C461.528 370.568 465.336 375.784 465.672 380.28C465.854 381.355 465.742 382.46 465.348 383.477C464.953 384.493 464.291 385.385 463.432 386.056Z" fill="black"/>
</g>
<path opacity="0.2" d="M133.512 363.176C137.117 364.737 140.821 366.057 144.6 367.128C170.888 375.032 197.72 381.096 224.6 386.44C251.48 391.784 278.68 396.04 305.928 398.808C356.664 403.064 407.768 406.104 458.648 403.512C466.472 403.032 474.296 402.408 482.04 401.192C489.784 399.976 497.72 398.632 504.232 394.168C497.912 398.968 489.832 400.472 482.184 402.024C443.336 408.424 403.656 407.16 364.456 405.816C293.62 403.564 223.394 391.943 155.608 371.256C148.045 369.09 140.645 366.389 133.464 363.176H133.512Z" fill="black"/>
<g opacity="0.2">
<path d="M165.72 353.336C188.576 347.296 211.947 343.407 235.528 341.72C212.672 347.761 189.301 351.649 165.72 353.336Z" fill="black"/>
<path d="M403.992 396.328C426.851 390.302 450.221 386.418 473.8 384.728C450.941 390.753 427.571 394.636 403.992 396.328Z" fill="black"/>
<path d="M168.6 364.712C211.413 355.37 254.667 348.183 298.2 343.176C255.387 352.518 212.133 359.705 168.6 364.712Z" fill="black"/>
<path d="M313.288 393.992C356.1 384.649 399.355 377.461 442.888 372.456C400.072 381.8 356.872 388.979 313.288 393.992Z" fill="black"/>
<path d="M252.584 384.472C303.304 373.805 354.408 365.309 405.896 358.984C355.176 369.651 304.072 378.147 252.584 384.472Z" fill="black"/>
<path d="M201.112 374.76C254.264 363.699 307.805 354.797 361.736 348.056C308.584 359.128 255.043 368.029 201.112 374.76Z" fill="black"/>
</g>
<g opacity="0.5">
<path d="M139.464 371.8C163.272 380.92 188.136 387.032 213.064 392.6C246.333 399.652 279.993 404.717 313.864 407.768C322.328 408.68 330.824 409.096 339.32 409.928C335.064 409.928 330.792 409.832 326.52 409.72C296.62 409.026 266.821 405.977 237.4 400.6C203.96 394.296 170.44 386.04 139.464 371.8Z" fill="white"/>
<path d="M349.768 410.2C371.544 409.864 394.312 410.536 416.088 411.704C394.049 414.846 371.642 414.338 349.768 410.2Z" fill="white"/>
</g>
<path d="M410.664 306.28C389.864 300.584 369.592 295.384 353.064 291.624C353.08 291.741 353.08 291.859 353.064 291.976C353.064 293.432 351.176 294.6 348.824 294.6C346.472 294.6 344.6 293.4 344.6 291.976C344.635 291.562 344.781 291.164 345.023 290.826C345.266 290.488 345.595 290.222 345.976 290.056C337.62 288.076 329.143 286.643 320.6 285.768C311.581 285.647 302.564 286.122 293.608 287.192C294.19 288.058 294.502 289.077 294.504 290.12C294.504 293.976 290.136 297.144 284.728 297.144C279.32 297.144 274.936 293.944 274.936 290.12C274.93 289.825 274.957 289.529 275.016 289.24C257.544 291.352 237.32 294.248 217.288 297.4C167.896 305.224 120.792 331.656 118.728 335.672C116.808 339.352 171.144 339.448 216.456 354.184C264.28 369.704 303.496 418.936 315.864 419.672C328.232 420.408 364.808 375.64 414.104 365.816C460.824 356.488 520.696 363.016 519.24 359.128C517.544 354.568 462.504 320.504 410.664 306.28ZM213.4 309.912C209.816 310.52 206.616 309.288 206.248 307.176C205.88 305.064 208.504 302.84 212.088 302.232C215.672 301.624 218.872 302.84 219.256 304.952C219.64 307.064 217.048 309.288 213.4 309.912ZM291.944 372.792C291.56 374.392 289.256 375.256 286.792 374.68C284.328 374.104 282.616 372.344 283 370.712C283.384 369.08 285.672 368.264 288.152 368.824C290.632 369.384 292.344 371.192 291.992 372.792H291.944ZM353.192 383.112C346.312 385.816 339.16 384.104 337.192 379.272C335.224 374.44 339.336 368.296 346.248 365.576C353.16 362.856 360.264 364.584 362.248 369.432C364.232 374.28 360.152 380.392 353.24 383.112H353.192ZM374.36 361.688C369.208 361.464 365.128 358.808 365.256 355.752C365.384 352.696 369.672 350.408 374.856 350.632C380.04 350.856 384.088 353.512 383.96 356.568C383.832 359.624 379.576 361.912 374.408 361.688H374.36ZM419.976 325.992C414.808 325.768 410.728 323.096 410.856 320.04C410.984 316.984 415.304 314.696 420.456 314.92C425.608 315.144 429.704 317.816 429.576 320.856C429.448 323.896 425.176 326.2 420.024 325.992H419.976ZM486.488 345.624C486.104 347.224 483.8 348.104 481.32 347.512C478.84 346.92 477.16 345.176 477.528 343.56C477.896 341.944 480.216 341.096 482.68 341.672C485.144 342.248 486.904 344.024 486.536 345.624H486.488Z" fill="#FFB996"/>
<path opacity="0.2" d="M410.664 306.28C389.864 300.584 369.592 295.384 353.064 291.624C353.08 291.741 353.08 291.859 353.064 291.976C353.064 293.432 351.176 294.6 348.824 294.6C346.472 294.6 344.6 293.4 344.6 291.976C344.635 291.562 344.781 291.164 345.023 290.826C345.266 290.488 345.595 290.222 345.976 290.056C337.62 288.076 329.143 286.643 320.6 285.768C311.581 285.647 302.564 286.122 293.608 287.192C294.19 288.058 294.502 289.077 294.504 290.12C294.504 293.976 290.136 297.144 284.728 297.144C279.32 297.144 274.936 293.944 274.936 290.12C274.93 289.825 274.957 289.529 275.016 289.24C257.544 291.352 237.32 294.248 217.288 297.4C167.896 305.224 120.792 331.656 118.728 335.672C116.808 339.352 171.144 339.448 216.456 354.184C264.28 369.704 303.496 418.936 315.864 419.672C328.232 420.408 364.808 375.64 414.104 365.816C460.824 356.488 520.696 363.016 519.24 359.128C517.544 354.568 462.504 320.504 410.664 306.28ZM213.4 309.912C209.816 310.52 206.616 309.288 206.248 307.176C205.88 305.064 208.504 302.84 212.088 302.232C215.672 301.624 218.872 302.84 219.256 304.952C219.64 307.064 217.048 309.288 213.4 309.912ZM291.944 372.792C291.56 374.392 289.256 375.256 286.792 374.68C284.328 374.104 282.616 372.344 283 370.712C283.384 369.08 285.672 368.264 288.152 368.824C290.632 369.384 292.344 371.192 291.992 372.792H291.944ZM353.192 383.112C346.312 385.816 339.16 384.104 337.192 379.272C335.224 374.44 339.336 368.296 346.248 365.576C353.16 362.856 360.264 364.584 362.248 369.432C364.232 374.28 360.152 380.392 353.24 383.112H353.192ZM374.36 361.688C369.208 361.464 365.128 358.808 365.256 355.752C365.384 352.696 369.672 350.408 374.856 350.632C380.04 350.856 384.088 353.512 383.96 356.568C383.832 359.624 379.576 361.912 374.408 361.688H374.36ZM419.976 325.992C414.808 325.768 410.728 323.096 410.856 320.04C410.984 316.984 415.304 314.696 420.456 314.92C425.608 315.144 429.704 317.816 429.576 320.856C429.448 323.896 425.176 326.2 420.024 325.992H419.976ZM486.488 345.624C486.104 347.224 483.8 348.104 481.32 347.512C478.84 346.92 477.16 345.176 477.528 343.56C477.896 341.944 480.216 341.096 482.68 341.672C485.144 342.248 486.904 344.024 486.536 345.624H486.488Z" fill="white"/>
<path opacity="0.1" d="M219.192 304.6C218.504 302.728 215.496 301.704 212.136 302.28C208.776 302.856 205.928 305.112 206.296 307.224C205.224 304.488 207.608 302.072 211.608 301.128C215.608 300.184 218.632 301.736 219.192 304.6Z" fill="black"/>
<path opacity="0.1" d="M291.992 372.792C292.344 371.192 290.648 369.416 288.2 368.824C285.752 368.232 283.4 369.112 283.048 370.712C282.936 366.616 286.68 366.632 289.368 367.64C290.354 368.037 291.163 368.777 291.645 369.725C292.127 370.672 292.251 371.761 291.992 372.792Z" fill="black"/>
<path opacity="0.1" d="M360.168 366.584C357.08 364.008 351.64 363.48 346.36 365.576C339.448 368.296 335.4 374.44 337.304 379.272C337.304 379.448 337.432 379.592 337.512 379.768C334.968 375.688 332.584 368.152 343.576 363.048C351.672 359.288 357.4 363.448 360.168 366.584Z" fill="black"/>
<path opacity="0.1" d="M383.816 355.336C382.984 352.84 379.336 350.824 374.904 350.632C369.72 350.408 365.448 352.712 365.304 355.752C365.28 355.954 365.28 356.158 365.304 356.36C364.328 352.872 366.232 349.336 372.744 349.016C379.256 348.696 384.008 352.6 383.816 355.336Z" fill="black"/>
<path opacity="0.1" d="M428.92 318.584C427.544 316.584 424.312 315.096 420.504 314.92C415.352 314.696 411.048 317 410.904 320.04C410.895 321.064 411.285 322.051 411.992 322.792C409.288 320.296 408.12 315.496 414.632 313.816C421.144 312.136 427.624 314.504 428.92 318.584Z" fill="black"/>
<path opacity="0.1" d="M486.136 343.8C485.301 342.695 484.088 341.937 482.728 341.672C480.264 341.096 477.928 341.944 477.576 343.56C477.471 344.07 477.544 344.601 477.784 345.064C476.552 343.112 476.84 341.16 479.768 340.264C481.08 339.931 482.47 340.112 483.653 340.769C484.837 341.426 485.725 342.51 486.136 343.8Z" fill="black"/>
<g opacity="0.5">
<path d="M131.4 333.96C148.796 334.394 166.133 336.17 183.256 339.272C208.712 344.072 235.112 350.12 256.472 365.576C270.776 375.528 283.672 387.32 296.664 398.872C301.401 403.295 306.425 407.4 311.704 411.16C313.304 412.088 315.112 413.496 317.032 412.76C323.608 409.56 332.216 402.376 338.344 398.168C345.4 393.08 352.552 388.12 359.944 383.48C396.328 360.392 417.304 358.328 459.32 356.792C471.96 356.408 485.768 356.616 498.456 356.92L504.968 357.096H508.168C509.237 357.166 510.31 357.118 511.368 356.952C509.21 357.172 507.039 357.231 504.872 357.128L498.344 357.048C485.544 356.952 471.88 356.936 459.256 357.512C417.4 359.304 396.68 361.368 360.552 384.552C353.224 389.192 346.152 394.152 339.112 399.304C332.712 403.704 324.44 410.856 317.48 414.2C316.879 414.414 316.24 414.506 315.603 414.47C314.966 414.434 314.342 414.272 313.768 413.992C310.811 412.555 308.053 410.743 305.56 408.6C302.184 405.832 298.92 402.936 295.688 400.04C282.792 388.424 269.992 376.616 255.784 366.616C234.6 351.128 208.456 345.064 183.112 340.104C166.056 336.753 148.768 334.72 131.4 334.024V333.96Z" fill="white"/>
<path d="M281.352 370.696C281.731 371.896 282.431 372.97 283.375 373.802C284.32 374.634 285.474 375.192 286.712 375.416C289 375.736 292.28 376.088 293.32 373.448C293.323 374.164 293.048 374.852 292.552 375.368C291.096 376.428 289.307 376.928 287.512 376.779C285.717 376.629 284.036 375.839 282.776 374.552C281.922 373.44 281.426 372.096 281.352 370.696Z" fill="white"/>
<path d="M336.408 382.312C344.664 389.224 358.808 385.896 363.352 376.184C364.026 374.813 364.5 373.353 364.76 371.848C364.664 385.368 345.304 392.296 336.408 382.312Z" fill="white"/>
<path d="M364.184 359.176C369.176 364.6 383.064 365.112 386.168 357.448C386.024 358.558 385.582 359.609 384.888 360.488C379.832 366.216 368.376 365.64 364.184 359.176Z" fill="white"/>
<path d="M203.704 308.488C207.416 314.232 221.784 312.68 221.96 304.824C223.448 313.864 206.568 316.024 203.704 308.488Z" fill="white"/>
<path d="M272.68 292.104C273.854 294.502 275.711 296.499 278.017 297.846C280.322 299.192 282.974 299.828 285.64 299.672C290.84 299.496 296.744 296.616 296.952 290.744C297.126 292.139 296.915 293.555 296.344 294.84C293.048 301.352 283.288 302.568 277.592 298.648C275.4 297.048 273.096 294.888 272.68 292.104Z" fill="white"/>
<path d="M407 318.888C408.456 326.44 417.432 328.488 424.072 327.816C426.76 327.56 429.816 326.92 431.432 324.616C432.249 323.446 432.607 322.017 432.44 320.6C432.841 322.052 432.657 323.602 431.928 324.92C429.448 328.952 423.928 329.24 419.752 329.08C414.072 328.888 407.096 325.256 406.952 318.92L407 318.888Z" fill="white"/>
<path d="M475.528 345.064C478.008 349.416 485.048 351.128 488.712 347.352C486.184 352.84 476.44 350.76 475.528 345.064Z" fill="white"/>
</g>
<path d="M319.72 239.624C312.2 233.016 305.096 230.6 300.296 231.256C295.496 231.912 293.8 237.416 290.296 238.632C286.792 239.848 274.776 243.432 270.36 242.136C265.944 240.84 255.832 238.712 250.408 237.752C244.984 236.792 246.04 237.288 235.464 239.352C224.888 241.416 200.072 244.824 194.328 243.032C188.584 241.24 177.24 235.368 172.936 235.8C168.632 236.232 168.6 243.928 163.064 245.048C157.528 246.168 152.136 242.056 140.936 246.376C129.736 250.696 131.336 253.096 128.376 257.416C125.416 261.736 124.504 260.728 118.04 267.512C111.576 274.296 118.712 289.72 119.64 292.584C120.568 295.448 126.984 303.656 131.08 303.656C135.176 303.656 134.28 297.048 144.824 299.208C155.368 301.368 144.248 310.056 152.824 315.864C161.4 321.672 162.424 323.064 165.976 321.64C169.528 320.216 169.416 315.64 176.184 317.8C182.952 319.96 178.824 322.856 185.56 324.6C192.296 326.344 191.64 327.8 198.808 328.088C205.976 328.376 200.872 336.296 208.856 337.352C216.84 338.408 222.696 338.104 226.68 336.44C230.664 334.776 234.12 337.096 234.52 339.368C234.92 341.64 229.592 346.072 234.92 349.336C240.248 352.6 231.224 351.4 246.024 355.416C260.824 359.432 268.328 360.728 273.08 355.288C277.832 349.848 281.528 343.64 287.384 343.544C293.24 343.448 289.832 361.512 306.584 361.288C323.336 361.064 328.76 352.872 334.888 352.776C341.016 352.68 334.888 369.608 349.288 369.512C363.688 369.416 365.288 357.048 372.44 356.264C379.592 355.48 373.352 370.36 394.024 370.36C414.696 370.36 409.16 359.592 419.48 357.208C429.8 354.824 437 367.48 453.592 367.4C470.184 367.32 468.2 360.552 476.104 360.36C484.008 360.168 487.384 368.936 490.152 372.328C492.92 375.72 493.256 380.696 500.52 378.728C507.784 376.76 506.68 363.432 511.72 359.016C516.76 354.6 519.304 358.008 524.36 353.176C529.416 348.344 537.784 347.496 535.768 340.12C533.752 332.744 522.456 331.64 521.848 322.312C521.24 312.984 531.8 312.712 533.464 301.512C535.128 290.312 525.928 290.664 519.416 284.552C512.904 278.44 504.712 286.344 500.344 277.832C495.976 269.32 501.08 269.464 491.224 263.32C481.368 257.176 469.736 266.696 460.824 263.192C451.912 259.688 438.088 247.304 430.76 244.552C423.432 241.8 419.56 250.104 415.032 249.928C410.504 249.752 400.6 242.2 391 243.08C381.4 243.96 380.568 247.56 373.944 247.88C367.32 248.2 356.344 245.24 351.192 243.416C346.04 241.592 342.248 243.416 335.608 243.416C328.968 243.416 322.664 242.2 319.72 239.624Z" fill="#455A64"/>
<g opacity="0.1">
<path d="M377.928 347.4C382.28 353.08 384.024 357.352 388.168 358.424C392.312 359.496 412.6 359.944 407.624 353.624C402.648 347.304 394.184 290.84 389.656 286.744C385.128 282.648 375 343.672 377.928 347.4Z" fill="white"/>
<path d="M440.392 357.992C445.192 361.032 464.216 360.92 467.224 355.88C470.232 350.84 451.72 342.824 446.12 336.072C440.52 329.32 429.544 305.784 425.784 304.6C422.024 303.416 419.384 304.344 416.184 307.8C412.984 311.256 414.248 319.816 414.216 324.696C414.184 329.576 419.8 344.6 421.736 346.536C423.672 348.472 435.8 355.08 440.392 357.992Z" fill="white"/>
<path d="M129.672 294.712C127.064 293.416 120.488 278.568 121.672 273.912C122.856 269.256 147.064 268.6 154.6 268.68C162.136 268.76 198.584 265.64 206.344 265.032C214.104 264.424 239.608 266.312 236.616 268.68C233.624 271.048 223.576 274.28 213.528 274.696C203.48 275.112 190.248 282.136 179.208 284.216C168.168 286.296 134.84 297.256 129.672 294.712Z" fill="white"/>
<path d="M241.16 345.272C247.195 348.126 253.549 350.248 260.088 351.592C263.72 351.992 271.464 349.768 275.768 345.272C280.072 340.776 294.04 329.768 298.824 324.712C303.608 319.656 313.544 293.944 313.544 293.944C313.544 293.944 301.896 302.92 295.864 305.144C289.832 307.368 278.264 314.472 272.984 316.536C267.704 318.6 255.128 316.744 247.512 315.256C239.896 313.768 238.088 317.912 226.968 317.768C218.013 317.895 209.122 319.307 200.568 321.96C197.992 322.936 205.368 323.08 206.312 325.432C207.256 327.784 207.544 331.256 210.952 332.056C216.401 333.054 222 332.896 227.384 331.592C232.44 329.992 239.256 332.68 241.16 333.784C243.064 334.888 237.096 343.144 241.16 345.272Z" fill="white"/>
<path d="M226.968 246.136C229.56 245.336 243.512 239.736 248.152 240.408C252.792 241.08 265.752 245.672 274.632 248.168C283.512 250.664 304.472 256.824 308.504 258.84C312.536 260.856 327.16 268.264 324.504 270.152C321.848 272.04 312.232 270.152 307.176 268.68C302.12 267.208 292.152 265.976 277.624 264.312C263.096 262.648 244.792 262.872 237.72 259.832C230.648 256.792 216.008 254.744 218.024 252.2C220.04 249.656 226.968 246.136 226.968 246.136Z" fill="white"/>
<path d="M364.472 355.32C359.672 356.424 360.168 361.176 355.192 361.72C350.216 362.264 346.952 362.52 345.048 358.984C343.144 355.448 341.416 346.728 337.384 346.584C332.299 346.694 327.265 347.618 322.472 349.32C318.264 350.84 314.024 355.72 309.672 353.032C305.32 350.344 302.52 348.936 300.984 346.632C299.448 344.328 297.928 341.224 300.984 337.32C304.04 333.416 313.384 332.392 316.744 327.976C320.104 323.56 328.36 311.176 329.112 306.6C329.864 302.024 342.808 300.536 345.816 296.36C348.824 292.184 359.432 288.776 360.92 289.464C362.408 290.152 363.368 295.4 364.424 299.064C365.48 302.728 369.432 311.56 369.928 315.32C370.424 319.08 367.192 336.232 368.728 342.008C370.264 347.784 368.376 354.408 364.472 355.32Z" fill="white"/>
<path d="M345.864 248.168C352.264 244.776 357.064 252.616 363.368 253.096C369.672 253.576 378.2 250.424 382.76 250.552C387.32 250.68 390.392 255.432 390.584 257.8C390.776 260.168 384.44 265.8 383.688 268.024C382.936 270.248 381.336 285.512 377.928 285.496C374.52 285.48 373.224 280.696 368.232 279.288C363.24 277.88 355.256 282.296 350.056 284.216C344.856 286.136 341.416 290.616 340.456 287.416C339.496 284.216 347.08 270.776 347.304 268.408C347.528 266.04 348.776 265.208 345.864 259.912C342.952 254.616 344.184 249.064 345.864 248.168Z" fill="white"/>
<path d="M495.096 367.208C498.84 366.52 504.696 356.008 506.744 353.944C508.792 351.88 513.144 350.936 516.936 349.384C520.728 347.832 528.584 348.328 528.392 343.8C528.2 339.272 513.112 334.408 513.848 324.744C514.156 317.902 517.084 311.44 522.024 306.696C524.76 304.36 534.408 307.528 528.424 299.032C522.44 290.536 521.88 286.088 515.144 287.032C508.408 287.976 508.968 292.424 498.584 291.752C488.2 291.08 485.128 291.624 474.024 290.808C465.51 289.919 456.904 290.796 448.744 293.384C441.464 295.624 434.632 297.128 438.136 300.648C441.64 304.168 460.072 307.624 469.144 307.816C478.216 308.008 491.544 308.696 492.776 312.264C494.008 315.832 486.76 324.248 479.48 319.4C472.2 314.552 473.576 313.688 463.24 312.84C452.904 311.992 447.608 309.976 447.24 312.264C446.872 314.552 441.576 314.968 447.24 317.944C452.904 320.92 460.44 327.816 463.24 330.376C466.04 332.936 474.216 339.736 472.936 340.6C471.656 341.464 492.68 367.672 495.096 367.208Z" fill="white"/>
<path d="M487.832 280.904C490.392 277.448 493.288 270.2 485.816 268.44C478.344 266.68 452.728 274.456 443.896 273.4C435.064 272.344 440.056 272.84 425.16 270.328C410.264 267.816 402.856 267.528 400.328 269.272C397.8 271.016 395.528 276.936 398.552 280.904C401.576 284.872 399.592 296.824 406.68 293.944C413.768 291.064 419.96 285.8 428.52 284.152C436.536 282.423 444.846 282.609 452.776 284.696C460.904 286.888 486.184 283.128 487.832 280.904Z" fill="white"/>
</g>
<path opacity="0.5" d="M461.992 364.392C466.088 363.544 468.536 360.056 472.36 358.632C474.306 357.981 476.36 357.714 478.408 357.848C484.808 358.408 488.664 364.6 491.8 369.416C495.176 374.904 499 379.64 502.456 371.016C506.856 359 505.512 355.64 519.528 352.664C520.445 352.491 521.314 352.12 522.072 351.576C523.748 350.474 525.496 349.486 527.304 348.616C529.129 347.855 530.73 346.644 531.96 345.096C529.96 348.52 525.432 349.704 522.6 352.152C521.176 353.448 518.632 353.752 516.92 354.344C515.054 354.865 513.251 355.589 511.544 356.504C506.248 359.192 506.168 366.536 503.88 371.576C502.28 376.296 498.184 379.928 494.088 375.192C489.128 369.544 486.536 360.28 478.312 358.904C476.398 358.722 474.467 358.895 472.616 359.416C468.904 360.536 466.024 363.992 461.992 364.44V364.392Z" fill="white"/>
<path opacity="0.5" d="M421.256 353.528C427.656 353.256 433.416 356.728 439.016 359.128C444.616 361.528 450.216 364.328 456.472 364.952C450.168 365.624 443.96 363.176 438.344 360.584C433.4 358.328 426.68 354.264 421.256 353.528Z" fill="white"/>
<path opacity="0.5" d="M367.864 355.944C371.704 353.032 378.696 352.168 381.016 357.432C382.184 359.64 382.76 362.056 384.344 363.544C386.174 364.864 388.36 365.6 390.616 365.656C395.314 366.211 400.076 365.73 404.568 364.248C406.744 363.56 407.96 361.336 409.528 359.448C411.01 357.483 412.941 355.903 415.16 354.84C413.153 356.164 411.46 357.912 410.2 359.96C409.231 361.548 408.088 363.024 406.792 364.36C404.11 366.032 401.051 367.006 397.896 367.192C393.096 367.544 387.336 367.912 383.336 364.616C381.4 362.616 380.904 360.056 379.96 357.96C378.04 353.032 371.8 353.896 367.912 355.944H367.864Z" fill="white"/>
<path opacity="0.5" d="M314.2 357.48C319.864 355.064 336.6 344.312 340.472 352.904C342.216 357.208 340.856 362.68 344.136 366.232C348.008 369.432 353.224 366.552 356.728 364.072C358.936 362.472 361.016 360.872 363.128 359.192C358.888 362.488 355.032 366.712 349.608 368.024C342.232 369.48 341 362.648 340.456 357.08C339.848 352.28 338.376 349.832 333.208 351.192C326.664 352.616 320.856 356.184 314.136 357.48H314.2Z" fill="white"/>
<path opacity="0.5" d="M208.36 329.272C208.632 332.168 211.56 333.64 214.184 333.896C221.64 334.712 229.528 331.08 236.712 334.296C237.688 334.744 239 335.768 238.936 337.032C238.936 339.64 237.512 342.968 237.256 345.528C237.751 345.963 238.287 346.349 238.856 346.68C241.144 348.12 242.808 350.184 245.464 351.272C251.4 353.896 258.264 356.152 264.776 354.904C273.112 353.064 276.472 343.48 284.44 340.84C292.072 339.336 294.36 343.64 296.648 349.784C297.913 352.18 299.759 354.22 302.018 355.716C304.277 357.212 306.876 358.115 309.576 358.344C306.797 358.258 304.086 357.461 301.703 356.03C299.319 354.599 297.342 352.581 295.96 350.168C293.56 344.552 291.816 340.472 284.76 342.024C277.208 344.984 273.56 354.552 265.144 356.424C258.152 357.88 251.128 355.496 244.84 352.632C242.328 351.64 240.392 349.432 238.072 347.832C237.312 347.393 236.64 346.818 236.088 346.136C235.905 345.388 235.95 344.603 236.216 343.88L237.272 339.912C237.464 338.872 238.072 337.288 237.608 336.408C236.12 334.616 232.904 334.12 230.584 333.928C224.632 333.352 209.784 337.832 208.456 329.256L208.36 329.272Z" fill="white"/>
<path opacity="0.5" d="M130.024 299.8C131.864 299.192 133.432 298.04 135.208 297.256C138.859 295.7 142.95 295.512 146.728 296.728C148.672 297.178 150.535 297.928 152.248 298.952C152.782 299.285 153.167 299.813 153.32 300.424C154.04 303.624 153.016 307.336 154.168 310.344C156.053 314.031 158.943 317.11 162.504 319.224C162.936 319.224 162.712 319.4 163.176 319.224C165.544 317.624 167.624 315.576 170.216 314.168C173.8 312.072 178.216 313.624 181.96 314.728C183.503 315.091 184.908 315.891 186.008 317.032C186.696 318.408 185.48 320.072 186.52 321.128C190.484 323.739 195.062 325.267 199.8 325.56C195.911 325.593 192.06 324.797 188.504 323.224C187.515 322.932 186.607 322.417 185.848 321.72C184.552 320.536 185.496 318.808 185.064 317.528C184.028 316.753 182.839 316.208 181.576 315.928C178.136 315.128 174.216 313.56 170.92 315.464C168.296 316.904 166.232 319.256 163.592 320.808C163.225 320.988 162.805 321.034 162.408 320.936C159.8 320.088 157.944 317.848 156.152 315.96C154.78 314.487 153.657 312.801 152.824 310.968C151.592 307.544 152.6 304.232 152.088 300.856C152.062 300.687 151.999 300.525 151.902 300.384C151.805 300.242 151.677 300.125 151.528 300.04C148.299 298.113 144.644 297.014 140.888 296.84C136.968 296.424 133.64 298.888 130.024 299.928V299.8Z" fill="white"/>
<path opacity="0.5" d="M200.024 313.24C208.52 310.574 217.199 308.532 225.992 307.128C231.368 306.152 236.632 308.328 241.992 308.728C247.194 309.523 252.461 309.818 257.72 309.608C262.856 308.515 267.849 306.835 272.6 304.6C275.8 303.224 279.08 301.72 282.296 300.232C274.552 304.52 266.664 309.16 257.88 311.048C248.937 311.485 239.978 310.612 231.288 308.456C220.84 308.248 210.344 311.544 200.024 313.256V313.24Z" fill="white"/>
<path opacity="0.5" d="M446.408 327.672C450.685 332.583 455.719 336.78 461.32 340.104C466.115 343.337 470.495 347.147 474.36 351.448C474.945 352.039 475.398 352.748 475.688 353.528C475.254 352.849 474.714 352.244 474.088 351.736C469.736 348.104 465.128 344.632 460.472 341.432C454.716 338.093 449.891 333.362 446.44 327.672H446.408Z" fill="white"/>
<path opacity="0.5" d="M522.328 313.16C520.562 314.836 519.508 317.128 519.384 319.56C518.904 324.36 519.992 329.048 524.056 332.008C525.912 333.608 527.896 335 529.944 336.408C525.416 334.616 520.04 332.024 518.504 327C517.176 322.344 517.624 315.8 522.328 313.24V313.16Z" fill="white"/>
<path opacity="0.1" d="M317.544 251.56C312.264 247.56 307.256 246.104 303.864 246.536C300.472 246.968 299.24 250.344 296.776 251.112C294.312 251.88 285.784 254.104 282.68 253.368C279.576 252.632 272.44 251.352 268.616 250.776C264.792 250.2 265.544 250.52 258.056 251.88C250.568 253.24 233.048 255.432 229.016 254.36C224.984 253.288 216.984 249.752 213.944 250.04C210.904 250.328 210.84 255 207 255.752C203.16 256.504 199.32 253.992 191.384 256.696C183.448 259.4 184.632 260.872 182.456 263.528C180.28 266.184 179.704 265.576 175.112 269.768C170.52 273.96 175.464 283.384 176.12 285.128C176.776 286.872 181.256 291.88 184.12 291.848C186.984 291.816 186.376 287.784 193.864 289.048C201.352 290.312 193.4 295.704 199.4 299.208C205.4 302.712 206.168 303.576 208.632 302.68C211.096 301.784 211.096 299 215.864 300.28C220.632 301.56 217.704 303.368 222.456 304.392C227.208 305.416 226.728 306.344 231.784 306.456C236.84 306.568 233.192 311.48 238.824 312.088C244.456 312.696 248.584 312.472 251.4 311.432C254.216 310.392 256.664 311.8 256.936 313.192C257.208 314.584 253.416 317.32 257.144 319.288C260.872 321.256 254.536 320.568 264.968 322.968C275.4 325.368 280.68 326.168 284.056 322.744C287.432 319.32 290.072 315.544 294.216 315.464C298.36 315.384 295.816 326.456 307.736 326.232C319.656 326.008 323.432 320.952 327.752 320.856C332.072 320.76 327.752 331.176 337.8 331.048C347.848 330.92 349.192 323.32 354.2 322.808C359.208 322.296 354.776 331.432 369.368 331.32C383.96 331.208 380.104 324.648 387.4 323.128C394.696 321.608 399.704 329.32 411.4 329.192C423.096 329.064 421.768 324.92 427.4 324.76C433.032 324.6 435.32 329.944 437.256 332.008C439.192 334.072 439.4 337.128 444.536 335.848C449.672 334.568 448.968 326.44 452.536 323.704C456.104 320.968 457.896 323.048 461.48 320.056C465.064 317.064 470.984 316.504 469.608 312.056C468.232 307.608 460.248 306.936 459.88 301.224C459.512 295.512 466.952 295.24 468.184 288.424C469.416 281.608 462.936 281.816 458.36 278.104C453.784 274.392 447.976 279.288 444.936 274.088C441.896 268.888 445.496 268.968 438.536 265.24C431.576 261.512 423.352 267.432 417.08 265.336C410.808 263.24 401.08 255.736 395.96 254.136C390.84 252.536 388.088 257.592 384.76 257.512C381.432 257.432 374.536 252.808 367.72 253.416C360.904 254.024 360.344 256.232 355.672 256.472C351 256.712 343.304 254.872 339.672 253.864C336.04 252.856 333.368 253.864 328.68 253.864C323.992 253.864 319.592 253.128 317.544 251.56Z" fill="black"/>
<path d="M287.784 320.328C318.696 326.6 362.776 318.136 383.592 293.128C388.072 287.736 388.472 275.64 388.296 270.52C387.592 251.688 361.096 242.52 337.208 237.752C306.808 231.688 257.08 237.32 238.888 261.656C234.456 267.576 231.144 269.992 231.256 276.312C231.512 292.488 248.792 312.408 287.784 320.328Z" fill="#FFB996"/>
<path opacity="0.2" d="M287.784 320.328C318.696 326.6 362.776 318.136 383.592 293.128C388.072 287.736 388.472 275.64 388.296 270.52C387.592 251.688 361.096 242.52 337.208 237.752C306.808 231.688 257.08 237.32 238.888 261.656C234.456 267.576 231.144 269.992 231.256 276.312C231.512 292.488 248.792 312.408 287.784 320.328Z" fill="black"/>
<path d="M286.472 312.6C317.384 318.888 361.464 310.408 382.28 285.4C403.096 260.392 366.28 236.104 335.88 230.024C305.48 223.944 255.768 229.592 237.576 253.928C221.832 274.984 232.232 301.56 286.472 312.6Z" fill="#FFB996"/>
<path opacity="0.1" d="M286.472 312.6C317.384 318.888 361.464 310.408 382.28 285.4C403.096 260.392 366.28 236.104 335.88 230.024C305.48 223.944 255.768 229.592 237.576 253.928C221.832 274.984 232.232 301.56 286.472 312.6Z" fill="black"/>
<path d="M290.488 304.92C315.736 310.056 351.752 303.128 368.744 282.68C385.736 262.232 355.64 242.408 330.856 237.4C306.072 232.392 265.416 237.048 250.552 256.92C237.672 274.2 246.184 295.912 290.488 304.92Z" fill="#FFB996"/>
<path d="M278.52 276.344C278.632 274.872 269.704 273.672 269.688 276.472C269.688 278.824 278.392 278.248 278.52 276.344Z" fill="white"/>
<path d="M300.344 254.824C302.808 254.472 302.792 249.064 298.168 249.816C294.28 250.456 297.16 255.256 300.344 254.824Z" fill="white"/>
<path d="M278.456 252.408C280.232 251.336 275.256 246.888 271.944 249.016C269.24 250.792 276.168 253.8 278.456 252.408Z" fill="white"/>
<path d="M265 282.616C263.24 281.592 255.496 284.648 259 286.504C261.928 288.072 267.288 283.928 265 282.616Z" fill="white"/>
<path d="M316.84 291.8C314.504 292.36 315.944 297.688 320.328 296.6C324.008 295.592 319.88 291.144 316.84 291.8Z" fill="white"/>
<path d="M346.952 264.408C346.952 265.88 355.96 266.872 355.784 264.056C355.624 261.72 346.968 262.488 346.952 264.408Z" fill="white"/>
<path d="M335 257.944C336.12 259.24 345.032 257.752 342.744 255.336C340.792 253.288 333.528 256.248 335 257.944Z" fill="white"/>
<path d="M315.432 278.808C312.952 278.616 309.704 283.736 314.456 283.976C318.424 284.184 318.648 279 315.432 278.808Z" fill="white"/>
<path d="M349.56 299.8C349.56 299.8 319.256 280.488 323.208 274.488C327.16 268.488 378.264 269.256 378.504 272.968C378.744 276.68 364.728 296.68 349.56 299.8Z" fill="#FFB996"/>
<path opacity="0.1" d="M349.56 299.8C349.56 299.8 319.256 280.488 323.208 274.488C327.16 268.488 378.264 269.256 378.504 272.968C378.744 276.68 364.728 296.68 349.56 299.8Z" fill="black"/>
<path d="M353.128 242.616C353.128 242.616 325.736 264.2 315.064 263.192C304.392 262.184 297.464 232.472 303.624 231.544C309.784 230.616 345.464 234.504 353.128 242.616Z" fill="#FFB996"/>
<path opacity="0.1" d="M353.128 242.616C353.128 242.616 325.736 264.2 315.064 263.192C304.392 262.184 297.464 232.472 303.624 231.544C309.784 230.616 345.464 234.504 353.128 242.616Z" fill="black"/>
<path d="M255 244.104C255 244.104 289.32 260.92 286.696 267.144C284.072 273.368 233.032 276.44 231.992 272.792C230.952 269.144 240.6 248.328 255 244.104Z" fill="#FFB996"/>
<path opacity="0.1" d="M255 244.104C255 244.104 289.32 260.92 286.696 267.144C284.072 273.368 233.032 276.44 231.992 272.792C230.952 269.144 240.6 248.328 255 244.104Z" fill="black"/>
<path d="M255.752 297.688C255.752 297.688 285.24 277.064 295.752 278.488C306.264 279.912 310.152 309.816 303.944 310.488C297.736 311.16 262.568 306.072 255.752 297.688Z" fill="#FFB996"/>
<path opacity="0.1" d="M255.752 297.688C255.752 297.688 285.24 277.064 295.752 278.488C306.264 279.912 310.152 309.816 303.944 310.488C297.736 311.16 262.568 306.072 255.752 297.688Z" fill="black"/>
<path d="M217.4 257.384C247.128 245.976 277.464 212.392 277.272 175.672C277.272 167.768 269.272 155.528 265.544 150.536C251.976 132.248 223.848 138.296 200.968 147.176C171.88 158.376 134.888 192.472 136.76 227.016C137.208 235.432 136.152 239.72 140.6 245.944C151.992 261.864 179.928 271.768 217.4 257.384Z" fill="#FFB996"/>
<path opacity="0.2" d="M217.4 257.384C247.128 245.976 277.464 212.392 277.272 175.672C277.272 167.768 269.272 155.528 265.544 150.536C251.976 132.248 223.848 138.296 200.968 147.176C171.88 158.376 134.888 192.472 136.76 227.016C137.208 235.432 136.152 239.72 140.6 245.944C151.992 261.864 179.928 271.768 217.4 257.384Z" fill="black"/>
<path d="M210.984 250.44C240.712 239 271 205.4 270.872 168.728C270.68 131.752 223.656 128.936 194.552 140.232C165.448 151.528 128.472 185.528 130.344 220.072C131.96 250.008 158.856 270.456 210.984 250.44Z" fill="#FFB996"/>
<path opacity="0.1" d="M210.984 250.44C240.712 239 271 205.4 270.872 168.728C270.68 131.752 223.656 128.936 194.552 140.232C165.448 151.528 128.472 185.528 130.344 220.072C131.96 250.008 158.856 270.456 210.984 250.44Z" fill="black"/>
<path d="M208.984 240.6C233.272 231.288 258.056 203.8 257.912 173.848C257.768 143.896 219.336 141.352 195.512 150.568C171.688 159.784 141.528 187.576 143.048 215.8C144.424 240.2 166.392 256.904 208.984 240.6Z" fill="#FFB996"/>
<path d="M179.448 219C178.52 217.4 170.36 221.384 172.296 224.168C173.912 226.504 180.648 220.968 179.448 219Z" fill="white"/>
<path d="M182.504 185.176C184.28 183.432 180.552 178.056 177.272 181.448C174.52 184.296 180.2 187.432 182.504 185.176Z" fill="white"/>
<path d="M162.872 195.272C163.592 193.208 156.36 191.672 155.176 195.624C154.2 199 161.944 197.976 162.872 195.272Z" fill="white"/>
<path d="M172.664 232.936C170.52 232.936 166.264 240.392 170.424 240.232C173.912 240.12 175.464 232.952 172.664 232.936Z" fill="white"/>
<path d="M221.624 212.536C220.024 214.424 224.952 218.936 227.736 215.224C230.088 212.152 223.624 210.072 221.624 212.536Z" fill="white"/>
<path d="M227.4 168.088C228.408 169.544 236.488 165.384 234.408 162.712C232.6 160.456 226.072 166.184 227.4 168.088Z" fill="white"/>
<path d="M213.096 168.504C214.904 169.176 221.208 162.6 217.64 161.496C214.664 160.6 210.744 167.656 213.096 168.504Z" fill="white"/>
<path d="M211.448 200.376C209.288 201.608 210.152 208.552 214.216 206.072C217.624 204.008 214.264 198.792 211.448 200.376Z" fill="white"/>
<path d="M253.976 201.752C253.976 201.752 215.768 199.88 214.872 191.672C213.976 183.464 256.472 155.032 259.208 158.584C261.944 162.136 264.264 189.976 253.976 201.752Z" fill="#FFB996"/>
<path opacity="0.1" d="M253.976 201.752C253.976 201.752 215.768 199.88 214.872 191.672C213.976 183.464 256.472 155.032 259.208 158.584C261.944 162.136 264.264 189.976 253.976 201.752Z" fill="black"/>
<path d="M217.416 143C217.416 143 209.832 180.072 200.376 185.16C190.92 190.248 164.712 164.712 169.144 160.28C173.576 155.848 205.528 139.256 217.416 143Z" fill="#FFB996"/>
<path opacity="0.1" d="M217.416 143C217.416 143 209.832 180.072 200.376 185.16C190.92 190.248 164.712 164.712 169.144 160.28C173.576 155.848 205.528 139.256 217.416 143Z" fill="black"/>
<path d="M137.896 200.408C137.896 200.408 177.704 197.496 179.832 205.208C181.96 212.92 142.184 245.064 138.824 242.008C135.464 238.952 128.984 212.824 137.896 200.408Z" fill="#FFB996"/>
<path opacity="0.1" d="M137.896 200.408C137.896 200.408 177.704 197.496 179.832 205.208C181.96 212.92 142.184 245.064 138.824 242.008C135.464 238.952 128.984 212.824 137.896 200.408Z" fill="black"/>
<path d="M175.48 253.192C175.48 253.192 185.464 215.88 195.064 211.256C204.664 206.632 228.536 234.12 223.864 238.456C219.192 242.792 186.856 257.624 175.48 253.192Z" fill="#FFB996"/>
<path opacity="0.1" d="M175.48 253.192C175.48 253.192 185.464 215.88 195.064 211.256C204.664 206.632 228.536 234.12 223.864 238.456C219.192 242.792 186.856 257.624 175.48 253.192Z" fill="black"/>
<path d="M438.648 301.976C409.624 297.544 374.648 276.248 366.056 248.104C364.184 242.04 368.344 231.512 370.408 227.16C378.024 211.16 404.36 211.752 426.728 215.224C455.176 219.656 496.072 240.328 502.728 267.048C504.328 273.56 506.296 276.648 503.864 282.088C497.608 295.928 475.272 307.56 438.648 301.976Z" fill="#FFB996"/>
<path opacity="0.2" d="M438.648 301.976C409.624 297.544 374.648 276.248 366.056 248.104C364.184 242.04 368.344 231.512 370.408 227.16C378.024 211.16 404.36 211.752 426.728 215.224C455.176 219.656 496.072 240.328 502.728 267.048C504.328 273.56 506.296 276.648 503.864 282.088C497.608 295.928 475.272 307.56 438.648 301.976Z" fill="black"/>
<path d="M442.664 295.736C413.624 291.304 378.664 269.992 370.056 241.864C361.448 213.736 402.28 204.552 430.728 208.984C459.176 213.416 500.072 234.088 506.728 260.792C512.488 283.944 493.608 303.496 442.664 295.736Z" fill="#FFB996"/>
<path opacity="0.1" d="M442.664 295.736C413.624 291.304 378.664 269.992 370.056 241.864C361.448 213.736 402.28 204.552 430.728 208.984C459.176 213.416 500.072 234.088 506.728 260.792C512.488 283.944 493.608 303.496 442.664 295.736Z" fill="black"/>
<path d="M442.056 287.864C418.328 284.248 389.816 266.84 382.744 243.848C375.672 220.856 409.064 213.448 432.344 217C455.624 220.552 489 237.496 494.424 259.32C499.096 278.232 483.672 294.216 442.056 287.864Z" fill="#FFB996"/>
<path d="M463 267.08C463.464 265.784 471.624 267.592 470.584 270.008C469.72 272.04 462.424 268.776 463 267.08Z" fill="white"/>
<path d="M452.184 241.64C450.2 240.568 452.184 235.912 455.928 238.04C459.048 239.816 454.776 243.032 452.184 241.64Z" fill="white"/>
<path d="M471.976 246.536C470.856 245.048 476.888 242.824 478.888 245.672C480.6 248.056 473.448 248.456 471.976 246.536Z" fill="white"/>
<path d="M472.36 276.776C474.264 276.456 479.816 281.576 476.104 282.04C472.984 282.456 469.896 277.192 472.36 276.776Z" fill="white"/>
<path d="M424.152 268.248C425.96 269.48 422.744 273.608 419.352 271.208C416.6 269.192 421.8 266.664 424.152 268.248Z" fill="white"/>
<path d="M408.376 235.064C407.832 236.328 399.672 234.312 400.872 231.96C401.88 229.992 409.08 233.416 408.376 235.064Z" fill="white"/>
<path d="M421.128 233.32C419.688 234.088 412.536 229.96 415.416 228.6C417.832 227.464 423 232.312 421.128 233.32Z" fill="white"/>
<path d="M430.232 257.48C432.44 258.104 433.432 263.544 429.16 262.28C428.845 262.21 428.547 262.078 428.282 261.892C428.018 261.707 427.793 261.471 427.62 261.198C427.447 260.925 427.329 260.621 427.274 260.303C427.218 259.985 427.226 259.659 427.296 259.344C427.366 259.029 427.498 258.731 427.684 258.466C427.869 258.202 428.105 257.977 428.378 257.804C428.651 257.631 428.955 257.513 429.273 257.458C429.591 257.402 429.917 257.41 430.232 257.48Z" fill="white"/>
<path d="M392.936 264.68C392.936 264.68 426.296 257.72 425.112 251.304C423.928 244.888 379.528 229.288 377.944 232.408C376.36 235.528 381 257.176 392.936 264.68Z" fill="#FFB996"/>
<path opacity="0.1" d="M392.936 264.68C392.936 264.68 426.296 257.72 425.112 251.304C423.928 244.888 379.528 229.288 377.944 232.408C376.36 235.528 381 257.176 392.936 264.68Z" fill="black"/>
<path d="M411.16 214.36C411.16 214.36 426.776 241.64 436.36 244.152C445.944 246.664 463 223.352 458.024 220.584C453.048 217.816 420.792 209.816 411.16 214.36Z" fill="#FFB996"/>
<path opacity="0.1" d="M411.16 214.36C411.16 214.36 426.776 241.64 436.36 244.152C445.944 246.664 463 223.352 458.024 220.584C453.048 217.816 420.792 209.816 411.16 214.36Z" fill="black"/>
<path d="M495.32 246.84C495.32 246.84 459.4 250.376 459.352 256.568C459.304 262.76 502.248 281.64 504.488 278.824C506.728 276.008 506.2 255 495.32 246.84Z" fill="#FFB996"/>
<path opacity="0.1" d="M495.32 246.84C495.32 246.84 459.4 250.376 459.352 256.568C459.304 262.76 502.248 281.64 504.488 278.824C506.728 276.008 506.2 255 495.32 246.84Z" fill="black"/>
<path d="M474.744 292.696C474.744 292.696 456.952 265.576 447.336 263.432C437.72 261.288 423.208 285.832 428.344 288.376C433.48 290.92 465.736 297.736 474.744 292.696Z" fill="#FFB996"/>
<path opacity="0.1" d="M474.744 292.696C474.744 292.696 456.952 265.576 447.336 263.432C437.72 261.288 423.208 285.832 428.344 288.376C433.48 290.92 465.736 297.736 474.744 292.696Z" fill="black"/>
<path d="M532.552 244.456C488.872 286.712 347.848 244.248 305.752 229.256C263.656 214.264 128.696 158.456 130.28 101.256C131.864 44.056 261.144 -34.088 402.632 16.312C544.12 66.712 576.232 202.2 532.552 244.456Z" fill="#FFB996"/>
<path opacity="0.2" d="M532.552 244.456C488.872 286.712 347.848 244.248 305.752 229.256C263.656 214.264 128.696 158.456 130.28 101.256C131.864 44.056 261.144 -34.088 402.632 16.312C544.12 66.712 576.232 202.2 532.552 244.456Z" fill="black"/>
<path opacity="0.1" d="M411.896 80.6C394.968 102.712 349.704 105.704 309.288 99.8C289.032 96.84 227.928 76.392 224.76 50.344C221.592 24.296 270.472 -7.65599 338.008 5.54401C405.544 18.744 428.824 58.456 411.896 80.6Z" fill="white"/>
<path opacity="0.1" d="M532.552 244.456C488.872 286.712 347.848 244.248 305.768 229.256C263.688 214.264 128.696 158.456 130.28 101.256C130.92 77.96 152.68 51.224 187.88 31.08C164.872 59.4 143.864 90.888 158.568 116.088C184.024 159.688 377.768 217.576 469.384 214.056C544.088 211.192 545.576 166.184 535.736 130.584C557.4 176.984 554.84 222.888 532.552 244.456Z" fill="black"/>
<path d="M356.872 149.832C354.232 149.064 345.88 158.936 351.032 160.2C355.336 161.24 360.28 150.84 356.872 149.832Z" fill="white"/>
<path d="M452.552 57.496C453.864 59.896 466.76 58.808 464.008 54.296C461.688 50.504 450.856 54.36 452.552 57.496Z" fill="white"/>
<path d="M427.8 151.816C425.304 152.952 425.512 165.896 430.216 163.464C434.2 161.416 431 150.328 427.8 151.816Z" fill="white"/>
<path d="M211.896 30.536C211.192 27.88 198.408 25.88 200.008 30.936C201.352 35.16 212.808 33.976 211.896 30.536Z" fill="white"/>
<path d="M292.024 101.032C290.632 98.664 277.784 100.216 280.696 104.632C283.144 108.344 293.848 104.104 292.024 101.032Z" fill="white"/>
<path d="M480.504 106.2C478.712 108.28 484.264 119.96 487.528 115.8C490.2 112.36 482.84 103.576 480.504 106.2Z" fill="white"/>
<path d="M461.704 128.424C458.968 128.696 454.984 141.016 460.232 140.216C464.6 139.56 465.24 128.056 461.704 128.424Z" fill="white"/>
<path d="M425.704 60.072C423.72 61.976 428.184 74.12 431.816 70.264C434.856 67.032 428.264 57.608 425.704 60.072Z" fill="white"/>
<path d="M204.36 18.76C203.352 16.216 190.424 15.736 192.6 20.552C194.44 24.6 205.672 22.072 204.36 18.76Z" fill="white"/>
<path d="M486.904 187.32C484.2 187.736 480.84 200.232 486.024 199.176C490.376 198.296 490.424 186.792 486.904 187.32Z" fill="white"/>
<path d="M534.392 148.824C532.456 150.76 537.176 162.808 540.792 158.888C543.704 155.592 536.904 146.296 534.392 148.824Z" fill="white"/>
<path d="M226.328 130.424C224.088 128.824 213.016 135.528 217.496 138.424C221.24 140.728 229.24 132.472 226.328 130.424Z" fill="white"/>
<path d="M302.36 25.064C302.888 22.376 292.312 14.936 291.512 20.168C290.856 24.6 301.656 28.552 302.36 25.064Z" fill="white"/>
<path d="M361.64 35.528C360.04 33.368 347.416 36.536 350.872 40.552C353.768 43.912 363.8 38.344 361.64 35.528Z" fill="white"/>
<path d="M389.944 188.904C387.256 189.48 384.696 202.168 389.816 200.792C394.088 199.624 393.416 188.136 389.944 188.904Z" fill="white"/>
<path d="M219.016 64.6C217.416 62.344 204.744 64.76 207.96 68.968C210.648 72.504 221.032 67.544 219.016 64.6Z" fill="white"/>
<path d="M373.144 204.728C370.408 204.584 364.584 216.152 369.944 216.168C374.328 216.168 376.696 204.904 373.144 204.728Z" fill="white"/>
<path opacity="0.5" d="M164.2 79C157.48 102.696 180.392 121.08 197.672 133.048C222.392 149.24 249.88 160.488 277.208 171.592C248.808 163.08 220.744 152.152 195.928 135.64C178.328 123.464 155.032 102.728 164.2 79Z" fill="white"/>
</svg>
