<svg width="300" height="200" viewBox="0 0 300 200" fill="none" xmlns="http://www.w3.org/2000/svg">
<g clip-path="url(#clip0_1_5)">
<g clip-path="url(#clip1_1_5)">
<g clip-path="url(#clip2_1_5)">
<g clip-path="url(#clip3_1_5)">
<g clip-path="url(#clip4_1_5)">
<g clip-path="url(#clip5_1_5)">
<g clip-path="url(#clip6_1_5)">
<g clip-path="url(#clip7_1_5)">
<g clip-path="url(#clip8_1_5)">
<g clip-path="url(#clip9_1_5)">
<path d="M75.328 74.415C76.1944 74.5474 76.7917 74.8287 77.1197 75.259C77.4415 75.6892 77.6024 76.2518 77.6024 76.9469C77.6024 79.2305 76.4575 80.2896 74.1676 80.1241L72.543 79.9752C70.7172 79.8097 68.9008 79.6773 67.0936 79.578C65.2802 79.4787 63.3833 79.4291 61.4029 79.4291H59.3141C58.9427 84.3273 58.5559 88.7952 58.1537 92.8329L66.1374 92.684C67.2824 92.684 68.0498 92.8991 68.4397 93.3294C68.8234 93.7596 69.0153 94.3388 69.0153 95.0669C69.0153 96.1922 68.7058 97.0758 68.0869 97.7179C67.468 98.3666 66.5861 98.6909 65.4411 98.6909H57.5038L57.2253 100.826C56.5755 106.286 55.1922 110.175 53.0756 112.492C50.9528 114.809 48.0347 115.967 44.3214 115.967C42.2171 115.967 40.2831 115.481 38.5192 114.507C36.7554 113.528 35.4557 112.343 34.6202 110.953C34.2798 110.39 34.1096 109.712 34.1096 108.918C34.1096 108.123 34.2891 107.428 34.648 106.833C35.0008 106.237 35.4402 105.939 35.9663 105.939C36.3376 105.939 36.7028 106.071 37.0617 106.336C37.4145 106.601 37.8694 107.114 38.4264 107.875C39.9117 109.96 41.7529 111.003 43.95 111.003C45.7139 111.003 47.193 110.231 48.3875 108.689C49.5758 107.154 50.3401 104.731 50.6805 101.421L50.959 98.6909H48.731C48.0193 98.6909 47.4096 98.4758 46.9021 98.0456C46.3885 97.6153 46.1316 97.003 46.1316 96.2087C46.1316 95.1828 46.3792 94.3951 46.8743 93.8457C47.3694 93.3029 48.0966 93.0315 49.0559 93.0315C49.9224 93.0315 50.7733 93.015 51.6088 92.9819C51.9802 89.3413 52.3825 84.923 52.8157 79.7269C49.4737 80.0579 47.1219 80.6371 45.7603 81.4645C44.3987 82.2919 43.7179 83.5164 43.7179 85.1381C43.7179 86.2634 44.0274 87.339 44.6463 88.365C44.8319 88.6628 44.9248 88.9607 44.9248 89.2586C44.9248 89.8543 44.6153 90.3739 43.9964 90.8174C43.3775 91.2675 42.6813 91.4926 41.9077 91.4926C41.0722 91.4926 40.3604 91.2278 39.7725 90.6982C39.4011 90.3673 39.0453 89.6888 38.7049 88.6628C38.3645 87.6369 38.1943 86.4951 38.1943 85.2374C38.1943 81.1335 40.1686 78.1549 44.1171 76.3015C48.0595 74.4481 53.8214 73.5214 61.4029 73.5214C66.6635 73.5214 71.3052 73.8193 75.328 74.415ZM92.6416 100.329C93.0439 100.329 93.3533 100.544 93.5699 100.975C93.7865 101.405 93.8948 101.951 93.8948 102.613C93.8948 104.201 93.4461 105.145 92.5487 105.443C90.6921 106.138 88.6497 106.535 86.4217 106.634C85.8337 109.414 84.6733 111.641 82.9404 113.316C81.2075 114.984 79.2425 115.818 77.0454 115.818C75.1887 115.818 73.6013 115.338 72.283 114.378C70.971 113.419 69.9745 112.144 69.2938 110.556C68.613 108.967 68.2726 107.246 68.2726 105.393C68.2726 102.878 68.7213 100.634 69.6187 98.6611C70.5161 96.6952 71.7539 95.1563 73.3321 94.0443C74.9102 92.9388 76.6586 92.3861 78.5772 92.3861C80.929 92.3861 82.8228 93.2533 84.2586 94.9875C85.7007 96.7283 86.5455 98.873 86.793 101.421C88.2474 101.322 89.9803 100.991 91.9917 100.428C92.2393 100.362 92.4559 100.329 92.6416 100.329ZM77.4168 110.556C78.407 110.556 79.2642 110.126 79.9883 109.265C80.7186 108.405 81.2075 107.164 81.455 105.542C80.4958 104.847 79.7593 103.937 79.2456 102.811C78.7381 101.686 78.4844 100.495 78.4844 99.237C78.4844 98.7075 78.5308 98.1779 78.6236 97.6484H78.3915C77.1537 97.6484 76.1233 98.2838 75.3001 99.5547C74.4832 100.832 74.0747 102.629 74.0747 104.946C74.0747 106.766 74.4058 108.156 75.0681 109.116C75.7365 110.076 76.5194 110.556 77.4168 110.556ZM113.576 100.329C113.978 100.329 114.287 100.544 114.504 100.975C114.721 101.405 114.829 101.951 114.829 102.613C114.829 104.201 114.38 105.145 113.483 105.443C111.626 106.138 109.584 106.535 107.356 106.634C106.768 109.414 105.607 111.641 103.875 113.316C102.142 114.984 100.177 115.818 97.9795 115.818C96.1229 115.818 94.5354 115.338 93.2171 114.378C91.9051 113.419 90.9087 112.144 90.2279 110.556C89.5471 108.967 89.2067 107.246 89.2067 105.393C89.2067 102.878 89.6554 100.634 90.5528 98.6611C91.4502 96.6952 92.688 95.1563 94.2662 94.0443C95.8444 92.9388 97.5927 92.3861 99.5113 92.3861C101.863 92.3861 103.757 93.2533 105.193 94.9875C106.635 96.7283 107.48 98.873 107.727 101.421C109.182 101.322 110.914 100.991 112.926 100.428C113.173 100.362 113.39 100.329 113.576 100.329ZM98.3509 110.556C99.3411 110.556 100.198 110.126 100.922 109.265C101.653 108.405 102.142 107.164 102.389 105.542C101.43 104.847 100.693 103.937 100.18 102.811C99.6722 101.686 99.4185 100.495 99.4185 99.237C99.4185 98.7075 99.4649 98.1779 99.5577 97.6484H99.3256C98.0878 97.6484 97.0574 98.2838 96.2343 99.5547C95.4173 100.832 95.0089 102.629 95.0089 104.946C95.0089 106.766 95.34 108.156 96.0022 109.116C96.6706 110.076 97.4535 110.556 98.3509 110.556ZM137.193 104.499C137.595 104.499 137.914 104.698 138.149 105.095C138.378 105.492 138.492 106.038 138.492 106.733C138.492 108.057 138.198 109.083 137.61 109.811C136.342 111.466 134.949 112.879 133.433 114.051C131.917 115.229 130.416 115.818 128.93 115.818C126.579 115.818 124.784 114.345 123.546 111.4C122.246 113.154 121.111 114.329 120.139 114.925C119.161 115.52 118.022 115.818 116.723 115.818C114.835 115.818 113.282 115.067 112.062 113.564C110.837 112.055 110.224 110.092 110.224 107.676C110.224 105.029 110.75 102.57 111.803 100.299C112.855 98.0356 114.303 96.1823 116.147 94.7393C117.985 93.3029 120.049 92.4523 122.339 92.1876C122.927 85.7669 124.05 80.2796 125.709 75.7256C127.362 71.1782 129.534 68.9045 132.226 68.9045C133.557 68.9045 134.665 69.5499 135.55 70.8407C136.428 72.1314 136.868 74.0841 136.868 76.6986C136.868 80.4054 136.017 84.741 134.315 89.7054C132.613 94.6698 130.338 99.7665 127.492 104.996C127.615 106.915 127.888 108.289 128.308 109.116C128.723 109.944 129.255 110.357 129.905 110.357C130.741 110.357 131.592 109.96 132.458 109.166C133.325 108.372 134.485 107.048 135.939 105.194C136.311 104.731 136.729 104.499 137.193 104.499ZM131.715 73.7697C131.128 73.7697 130.54 74.885 129.952 77.1157C129.364 79.3529 128.862 82.2753 128.448 85.8828C128.027 89.4902 127.724 93.2632 127.538 97.2016C131.004 89.1262 132.737 82.6394 132.737 77.7412C132.737 76.4835 132.638 75.5072 132.44 74.8122C132.235 74.1172 131.994 73.7697 131.715 73.7697ZM118.347 110.804C118.935 110.804 119.523 110.546 120.111 110.03C120.699 109.52 121.442 108.57 122.339 107.18C122.03 105.393 121.875 103.391 121.875 101.173C121.875 100.379 121.906 99.0881 121.968 97.3009C120.266 97.8635 118.852 99.0782 117.725 100.945C116.593 102.818 116.027 104.896 116.027 107.18C116.027 109.596 116.8 110.804 118.347 110.804ZM147.683 115.967C143.567 115.967 140.272 115.13 137.796 113.455C135.321 111.787 134.083 109.232 134.083 105.79C134.083 103.97 134.377 102.58 134.965 101.62C135.553 100.66 136.419 100.18 137.564 100.18C138.4 100.18 139.08 100.412 139.606 100.875C140.132 101.339 140.396 101.934 140.396 102.662C140.396 103.324 140.349 103.904 140.256 104.4C140.256 104.532 140.235 104.764 140.191 105.095C140.142 105.426 140.117 105.773 140.117 106.138C140.117 107.627 140.823 108.736 142.234 109.464C143.639 110.192 145.61 110.556 148.147 110.556C150.777 110.556 152.835 110.049 154.321 109.037C155.806 108.031 156.549 106.617 156.549 104.797C156.549 103.672 156.208 102.702 155.527 101.888C154.847 101.08 153.996 100.402 152.975 99.8526C151.953 99.3098 150.514 98.6413 148.658 97.847C146.275 96.8541 144.335 95.9109 142.837 95.0173C141.333 94.1237 140.049 92.9058 138.984 91.3635C137.914 89.8278 137.378 87.9182 137.378 85.6346C137.378 83.2517 137.976 81.1335 139.17 79.2801C140.358 77.4268 142.076 75.9871 144.322 74.9611C146.563 73.9351 149.199 73.4221 152.232 73.4221C154.491 73.4221 156.564 73.7763 158.452 74.4845C160.339 75.1994 161.85 76.2849 162.982 77.7412C164.108 79.1974 164.672 80.9846 164.672 83.1027C164.672 85.1878 164.378 86.7598 163.79 87.8189C163.202 88.878 162.335 89.4075 161.19 89.4075C160.386 89.4075 159.714 89.1427 159.176 88.6132C158.631 88.0837 158.359 87.4548 158.359 86.7267C158.359 86.0979 158.405 85.5187 158.498 84.9892C158.591 83.9963 158.637 83.3675 158.637 83.1027C158.637 81.7127 158.003 80.6536 156.734 79.9255C155.466 79.1974 153.887 78.8333 152 78.8333C149.339 78.8333 147.305 79.3529 145.901 80.3922C144.49 81.438 143.784 82.9041 143.784 84.7906C143.784 86.0483 144.149 87.1239 144.879 88.0175C145.604 88.9111 146.507 89.6557 147.59 90.2515C148.673 90.8472 150.19 91.5587 152.139 92.3861C154.491 93.4121 156.378 94.3388 157.802 95.1662C159.225 95.9936 160.442 97.1189 161.45 98.542C162.453 99.9651 162.954 101.719 162.954 103.804C162.954 107.71 161.571 110.711 158.805 112.81C156.032 114.915 152.325 115.967 147.683 115.967ZM187.138 104.499C187.54 104.499 187.855 104.698 188.084 105.095C188.32 105.492 188.437 106.038 188.437 106.733C188.437 108.057 188.143 109.083 187.555 109.811C186.225 111.565 184.77 113.005 183.192 114.13C181.614 115.255 179.804 115.818 177.761 115.818C171.449 115.818 168.292 111.069 168.292 101.57C168.292 100.114 168.339 98.6413 168.431 97.152H166.621C165.693 97.152 165.065 96.9699 164.737 96.6059C164.415 96.2418 164.254 95.6626 164.254 94.8683C164.254 93.015 164.95 92.0883 166.343 92.0883H168.988C169.515 88.4477 170.319 85.1216 171.402 82.1098C172.485 79.0981 173.791 76.6986 175.32 74.9115C176.855 73.1243 178.504 72.2307 180.268 72.2307C181.567 72.2307 182.589 72.843 183.331 74.0675C184.074 75.2921 184.445 76.831 184.445 78.6844C184.445 83.8143 182.434 88.2822 178.411 92.0883H183.61C184.105 92.0883 184.461 92.2041 184.677 92.4358C184.894 92.6675 185.002 93.0977 185.002 93.7265C185.002 96.0102 183.254 97.152 179.757 97.152H174.094C174.032 98.8068 174.001 100.098 174.001 101.024C174.001 104.466 174.379 106.882 175.134 108.272C175.895 109.662 177.096 110.357 178.736 110.357C180.067 110.357 181.243 109.927 182.264 109.067C183.285 108.206 184.492 106.915 185.884 105.194C186.256 104.731 186.673 104.499 187.138 104.499ZM179.015 76.9965C178.55 76.9965 178.031 77.6154 177.455 78.8532C176.886 80.0976 176.344 81.8186 175.83 84.0162C175.323 86.2204 174.899 88.6628 174.559 91.3436C176.384 89.6557 177.752 87.7593 178.662 85.6544C179.578 83.5561 180.036 81.6465 180.036 79.9255C180.036 77.9728 179.695 76.9965 179.015 76.9965ZM189.412 115.818C188.019 115.818 186.881 115.13 185.996 113.753C185.117 112.383 184.677 110.672 184.677 108.62C184.677 106.138 184.832 103.861 185.142 101.789C185.451 99.7235 185.962 97.5326 186.673 95.2158C186.983 94.223 187.416 93.5114 187.973 93.0812C188.53 92.6509 189.412 92.4358 190.619 92.4358C191.3 92.4358 191.77 92.5516 192.03 92.7833C192.296 93.015 192.429 93.3625 192.429 93.8258C192.429 94.0906 192.259 94.9842 191.919 96.5066C191.609 97.7311 191.361 98.8399 191.176 99.8327C190.557 103.308 190.247 105.625 190.247 106.783C190.247 107.478 190.325 107.964 190.48 108.242C190.634 108.527 190.882 108.669 191.222 108.669C191.686 108.669 192.265 108.173 192.958 107.18C193.658 106.187 194.4 104.681 195.186 102.662C195.978 100.644 196.746 98.1614 197.489 95.2158C197.736 94.223 198.114 93.5114 198.621 93.0812C199.135 92.6509 199.902 92.4358 200.923 92.4358C201.635 92.4358 202.13 92.5251 202.409 92.7039C202.687 92.8892 202.827 93.2301 202.827 93.7265C202.827 94.5539 202.44 96.821 201.666 100.528C200.8 104.764 200.366 107.379 200.366 108.372C200.366 109 200.49 109.487 200.738 109.831C200.985 110.182 201.31 110.357 201.713 110.357C202.331 110.357 203.065 109.95 203.913 109.136C204.767 108.328 205.906 107.015 207.329 105.194C207.7 104.731 208.118 104.499 208.582 104.499C208.985 104.499 209.3 104.698 209.529 105.095C209.764 105.492 209.882 106.038 209.882 106.733C209.882 108.057 209.588 109.083 209 109.811C207.669 111.565 206.237 113.005 204.702 114.13C203.173 115.255 201.434 115.818 199.484 115.818C197.999 115.818 196.907 115.206 196.207 113.981C195.514 112.757 195.168 111.036 195.168 108.818C194.642 111.069 193.853 112.796 192.8 114.001C191.748 115.212 190.619 115.818 189.412 115.818ZM224.169 101.67C225.036 101.67 225.469 102.365 225.469 103.755C225.469 106.369 223.55 107.676 219.713 107.676C218.97 107.676 217.903 107.528 216.51 107.23C216.913 109.282 217.247 111.555 217.513 114.051C217.773 116.553 217.903 118.615 217.903 120.236C217.903 123.811 217.361 126.541 216.278 128.428C215.195 130.314 213.772 131.257 212.008 131.257C209.78 131.257 208.195 129.569 207.255 126.194C206.308 122.818 205.834 117.721 205.834 110.903C205.834 104.549 206.478 98.1018 207.765 91.5621C209.046 85.0289 210.81 79.6177 213.057 75.3285C215.297 71.0459 217.764 68.9045 220.456 68.9045C221.91 68.9045 223.049 69.5996 223.872 70.9896C224.689 72.3796 225.097 74.2495 225.097 76.5994C225.097 84.3769 220.75 92.8495 212.054 102.017C211.745 105.26 211.59 108.107 211.59 110.556C211.59 113.965 211.698 117.466 211.915 121.061C212.132 124.648 212.487 126.442 212.983 126.442C213.911 126.442 214.375 124.721 214.375 121.279C214.375 118.697 214.214 116.199 213.892 113.783C213.564 111.367 213.122 108.818 212.565 106.138C212.534 105.707 212.667 105.161 212.964 104.499C213.255 103.837 213.617 103.258 214.05 102.762C214.483 102.265 214.87 102.017 215.211 102.017C215.83 102.017 216.572 102.05 217.439 102.116C217.717 102.149 218.042 102.166 218.413 102.166C219.651 102.166 221.028 102.05 222.545 101.819C222.792 101.785 223.055 101.752 223.334 101.719C223.612 101.686 223.891 101.67 224.169 101.67ZM219.481 73.8193C218.924 73.8193 218.237 74.8287 217.42 76.8476C216.597 78.8664 215.783 81.5373 214.979 84.8601C214.174 88.1896 213.478 91.7077 212.89 95.4144C215.365 92.4027 217.268 89.2652 218.599 86.0019C219.93 82.7453 220.61 79.6938 220.641 76.8476C220.641 74.8287 220.255 73.8193 219.481 73.8193ZM240.462 101.67C241.328 101.67 241.761 102.365 241.761 103.755C241.761 106.369 239.843 107.676 236.005 107.676C235.263 107.676 234.195 107.528 232.803 107.23C233.205 109.282 233.539 111.555 233.805 114.051C234.065 116.553 234.195 118.615 234.195 120.236C234.195 123.811 233.654 126.541 232.571 128.428C231.488 130.314 230.064 131.257 228.3 131.257C226.072 131.257 224.488 129.569 223.547 126.194C222.6 122.818 222.127 117.721 222.127 110.903C222.127 104.549 222.77 98.1018 224.058 91.5621C225.339 85.0289 227.103 79.6177 229.349 75.3285C231.59 71.0459 234.056 68.9045 236.748 68.9045C238.203 68.9045 239.341 69.5996 240.164 70.9896C240.981 72.3796 241.39 74.2495 241.39 76.5994C241.39 84.3769 237.042 92.8495 228.347 102.017C228.037 105.26 227.882 108.107 227.882 110.556C227.882 113.965 227.991 117.466 228.207 121.061C228.424 124.648 228.78 126.442 229.275 126.442C230.203 126.442 230.668 124.721 230.668 121.279C230.668 118.697 230.507 116.199 230.185 113.783C229.857 111.367 229.414 108.818 228.857 106.138C228.826 105.707 228.959 105.161 229.256 104.499C229.547 103.837 229.909 103.258 230.343 102.762C230.776 102.265 231.163 102.017 231.503 102.017C232.122 102.017 232.865 102.05 233.731 102.116C234.01 102.149 234.334 102.166 234.706 102.166C235.944 102.166 237.321 102.05 238.837 101.819C239.084 101.785 239.348 101.752 239.626 101.719C239.905 101.686 240.183 101.67 240.462 101.67ZM235.773 73.8193C235.216 73.8193 234.529 74.8287 233.712 76.8476C232.889 78.8664 232.076 81.5373 231.271 84.8601C230.466 88.1896 229.77 91.7077 229.182 95.4144C231.658 92.4027 233.561 89.2652 234.891 86.0019C236.222 82.7453 236.903 79.6938 236.934 76.8476C236.934 74.8287 236.547 73.8193 235.773 73.8193ZM250.58 116.91C248.971 116.91 247.74 116.513 246.886 115.719C246.038 114.925 245.614 114.031 245.614 113.038C245.614 112.178 245.908 111.433 246.496 110.804C247.084 110.175 247.95 109.861 249.095 109.861C249.497 109.861 249.968 109.901 250.506 109.98C251.051 110.066 251.462 110.126 251.741 110.159C251.71 109.298 251.53 108.487 251.202 107.726C250.881 106.965 250.472 106.227 249.977 105.512C249.482 104.804 249.018 104.185 248.585 103.655C247.625 105.608 246.672 107.23 245.725 108.52C244.785 109.811 243.757 111.036 242.643 112.194C242.086 112.79 241.498 113.088 240.879 113.088C240.384 113.088 239.982 112.896 239.672 112.512C239.363 112.135 239.208 111.665 239.208 111.102C239.208 110.44 239.425 109.828 239.858 109.265L240.462 108.471C242.163 106.22 243.448 104.367 244.314 102.911C244.84 101.951 245.459 100.667 246.171 99.0583C246.883 97.4564 247.579 95.795 248.26 94.074C248.848 92.6178 250.07 91.8897 251.927 91.8897C252.793 91.8897 253.396 91.9724 253.737 92.1379C254.077 92.3034 254.247 92.5682 254.247 92.9322C254.247 93.1308 254.186 93.4452 254.062 93.8755C253.938 94.3057 253.768 94.736 253.551 95.1662C252.994 96.3577 252.716 97.3671 252.716 98.1945C252.716 98.6909 252.877 99.237 253.198 99.8327C253.526 100.428 254.031 101.173 254.712 102.067C255.702 103.457 256.451 104.638 256.958 105.611C257.472 106.591 257.729 107.66 257.729 108.818C257.729 109.149 257.698 109.613 257.636 110.208C259.152 109.58 260.931 107.908 262.974 105.194C263.345 104.731 263.763 104.499 264.227 104.499C264.629 104.499 264.945 104.698 265.174 105.095C265.409 105.492 265.527 106.038 265.527 106.733C265.527 107.991 265.233 109.017 264.645 109.811C263.098 111.863 261.618 113.26 260.207 114.001C258.802 114.749 257.063 115.156 254.99 115.222C253.752 116.348 252.282 116.91 250.58 116.91Z" fill="white"/>
</g>
</g>
</g>
</g>
</g>
</g>
<mask id="mask0_1_5" style="mask-type:luminance" maskUnits="userSpaceOnUse" x="0" y="0" width="485" height="324">
<path d="M484.632 0H0.0970459V323.887H484.632V0Z" fill="white"/>
<g clip-path="url(#clip10_1_5)">
<g clip-path="url(#clip11_1_5)">
<g clip-path="url(#clip12_1_5)">
<g clip-path="url(#clip13_1_5)">
<g clip-path="url(#clip14_1_5)">
<g clip-path="url(#clip15_1_5)">
<g clip-path="url(#clip16_1_5)">
<path d="M75.328 74.415C76.1944 74.5474 76.7917 74.8287 77.1197 75.259C77.4415 75.6892 77.6024 76.2518 77.6024 76.9469C77.6024 79.2305 76.4575 80.2896 74.1676 80.1241L72.543 79.9751C70.7172 79.8097 68.9008 79.6773 67.0936 79.578C65.2802 79.4787 63.3833 79.4291 61.4029 79.4291H59.3141C58.9427 84.3273 58.5559 88.7952 58.1537 92.8329L66.1374 92.684C67.2824 92.684 68.0498 92.8991 68.4397 93.3294C68.8234 93.7596 69.0153 94.3388 69.0153 95.0669C69.0153 96.1922 68.7058 97.0758 68.0869 97.7179C67.468 98.3666 66.5861 98.6909 65.4411 98.6909H57.5038L57.2253 100.826C56.5755 106.286 55.1922 110.175 53.0756 112.492C50.9528 114.809 48.0347 115.967 44.3214 115.967C42.2171 115.967 40.2831 115.481 38.5192 114.507C36.7554 113.528 35.4557 112.343 34.6202 110.953C34.2798 110.39 34.1096 109.712 34.1096 108.918C34.1096 108.123 34.2891 107.428 34.648 106.833C35.0008 106.237 35.4402 105.939 35.9663 105.939C36.3376 105.939 36.7028 106.071 37.0617 106.336C37.4145 106.601 37.8694 107.114 38.4264 107.875C39.9117 109.96 41.7529 111.003 43.95 111.003C45.7139 111.003 47.193 110.231 48.3875 108.689C49.5758 107.154 50.3401 104.731 50.6805 101.421L50.959 98.6909H48.731C48.0193 98.6909 47.4096 98.4758 46.9021 98.0456C46.3885 97.6153 46.1316 97.003 46.1316 96.2087C46.1316 95.1828 46.3792 94.3951 46.8743 93.8457C47.3694 93.3029 48.0966 93.0315 49.0559 93.0315C49.9224 93.0315 50.7733 93.015 51.6088 92.9819C51.9802 89.3413 52.3825 84.923 52.8157 79.7269C49.4737 80.0579 47.1219 80.6371 45.7603 81.4645C44.3987 82.2919 43.7179 83.5164 43.7179 85.1381C43.7179 86.2634 44.0274 87.339 44.6463 88.365C44.8319 88.6628 44.9248 88.9607 44.9248 89.2586C44.9248 89.8543 44.6153 90.3739 43.9964 90.8174C43.3775 91.2675 42.6813 91.4926 41.9077 91.4926C41.0722 91.4926 40.3604 91.2278 39.7725 90.6982C39.4011 90.3673 39.0453 89.6888 38.7049 88.6628C38.3645 87.6369 38.1943 86.4951 38.1943 85.2374C38.1943 81.1335 40.1686 78.1549 44.1171 76.3015C48.0595 74.4481 53.8214 73.5214 61.4029 73.5214C66.6635 73.5214 71.3052 73.8193 75.328 74.415ZM92.6416 100.329C93.0439 100.329 93.3533 100.544 93.5699 100.975C93.7865 101.405 93.8948 101.951 93.8948 102.613C93.8948 104.201 93.4461 105.145 92.5487 105.443C90.6921 106.138 88.6497 106.535 86.4217 106.634C85.8337 109.414 84.6733 111.641 82.9404 113.316C81.2075 114.984 79.2425 115.818 77.0454 115.818C75.1887 115.818 73.6013 115.338 72.283 114.378C70.971 113.419 69.9745 112.144 69.2938 110.556C68.613 108.967 68.2726 107.246 68.2726 105.393C68.2726 102.878 68.7213 100.634 69.6187 98.6611C70.5161 96.6952 71.7539 95.1563 73.3321 94.0443C74.9102 92.9388 76.6586 92.3861 78.5772 92.3861C80.929 92.3861 82.8228 93.2533 84.2586 94.9875C85.7007 96.7283 86.5455 98.873 86.793 101.421C88.2474 101.322 89.9803 100.991 91.9917 100.428C92.2393 100.362 92.4559 100.329 92.6416 100.329ZM77.4168 110.556C78.407 110.556 79.2642 110.126 79.9883 109.265C80.7186 108.405 81.2075 107.164 81.455 105.542C80.4958 104.847 79.7593 103.937 79.2456 102.811C78.7381 101.686 78.4844 100.495 78.4844 99.237C78.4844 98.7075 78.5308 98.1779 78.6236 97.6484H78.3915C77.1537 97.6484 76.1233 98.2838 75.3001 99.5547C74.4832 100.832 74.0747 102.629 74.0747 104.946C74.0747 106.766 74.4058 108.156 75.0681 109.116C75.7365 110.076 76.5194 110.556 77.4168 110.556ZM113.576 100.329C113.978 100.329 114.287 100.544 114.504 100.975C114.721 101.405 114.829 101.951 114.829 102.613C114.829 104.201 114.38 105.145 113.483 105.443C111.626 106.138 109.584 106.535 107.356 106.634C106.768 109.414 105.607 111.641 103.875 113.316C102.142 114.984 100.177 115.818 97.9795 115.818C96.1229 115.818 94.5354 115.338 93.2171 114.378C91.9051 113.419 90.9087 112.144 90.2279 110.556C89.5471 108.967 89.2067 107.246 89.2067 105.393C89.2067 102.878 89.6554 100.634 90.5528 98.6611C91.4502 96.6952 92.688 95.1563 94.2662 94.0443C95.8444 92.9388 97.5927 92.3861 99.5113 92.3861C101.863 92.3861 103.757 93.2533 105.193 94.9875C106.635 96.7283 107.48 98.873 107.727 101.421C109.182 101.322 110.914 100.991 112.926 100.428C113.173 100.362 113.39 100.329 113.576 100.329ZM98.3509 110.556C99.3411 110.556 100.198 110.126 100.922 109.265C101.653 108.405 102.142 107.164 102.389 105.542C101.43 104.847 100.693 103.937 100.18 102.811C99.6722 101.686 99.4185 100.495 99.4185 99.237C99.4185 98.7075 99.4649 98.1779 99.5577 97.6484H99.3256C98.0878 97.6484 97.0574 98.2838 96.2343 99.5547C95.4173 100.832 95.0089 102.629 95.0089 104.946C95.0089 106.766 95.34 108.156 96.0022 109.116C96.6706 110.076 97.4535 110.556 98.3509 110.556ZM137.193 104.499C137.595 104.499 137.914 104.698 138.149 105.095C138.378 105.492 138.492 106.038 138.492 106.733C138.492 108.057 138.198 109.083 137.61 109.811C136.342 111.466 134.949 112.879 133.433 114.051C131.917 115.229 130.416 115.818 128.93 115.818C126.579 115.818 124.784 114.345 123.546 111.4C122.246 113.154 121.111 114.329 120.139 114.925C119.161 115.52 118.022 115.818 116.723 115.818C114.835 115.818 113.282 115.067 112.062 113.564C110.837 112.055 110.224 110.092 110.224 107.676C110.224 105.029 110.75 102.57 111.803 100.299C112.855 98.0356 114.303 96.1823 116.147 94.7393C117.985 93.3029 120.049 92.4523 122.339 92.1876C122.927 85.7669 124.05 80.2796 125.709 75.7256C127.362 71.1782 129.534 68.9045 132.226 68.9045C133.557 68.9045 134.665 69.5499 135.55 70.8407C136.428 72.1314 136.868 74.0841 136.868 76.6986C136.868 80.4054 136.017 84.741 134.315 89.7054C132.613 94.6698 130.338 99.7665 127.492 104.996C127.615 106.915 127.888 108.289 128.308 109.116C128.723 109.944 129.255 110.357 129.905 110.357C130.741 110.357 131.592 109.96 132.458 109.166C133.325 108.372 134.485 107.048 135.939 105.194C136.311 104.731 136.729 104.499 137.193 104.499ZM131.716 73.7697C131.128 73.7697 130.54 74.885 129.952 77.1157C129.364 79.3529 128.862 82.2753 128.448 85.8828C128.027 89.4902 127.724 93.2632 127.538 97.2016C131.004 89.1262 132.737 82.6394 132.737 77.7412C132.737 76.4835 132.638 75.5072 132.44 74.8122C132.235 74.1172 131.994 73.7697 131.716 73.7697ZM118.347 110.804C118.935 110.804 119.523 110.546 120.111 110.03C120.699 109.52 121.442 108.57 122.339 107.18C122.03 105.393 121.875 103.391 121.875 101.173C121.875 100.379 121.906 99.0881 121.968 97.3009C120.266 97.8635 118.852 99.0782 117.725 100.945C116.593 102.818 116.027 104.896 116.027 107.18C116.027 109.596 116.8 110.804 118.347 110.804ZM147.683 115.967C143.567 115.967 140.272 115.13 137.796 113.455C135.321 111.787 134.083 109.232 134.083 105.79C134.083 103.97 134.377 102.58 134.965 101.62C135.553 100.66 136.419 100.18 137.564 100.18C138.4 100.18 139.08 100.412 139.606 100.875C140.132 101.339 140.396 101.934 140.396 102.662C140.396 103.324 140.349 103.904 140.256 104.4C140.256 104.532 140.235 104.764 140.191 105.095C140.142 105.426 140.117 105.773 140.117 106.138C140.117 107.627 140.823 108.736 142.234 109.464C143.639 110.192 145.61 110.556 148.147 110.556C150.777 110.556 152.835 110.049 154.321 109.037C155.806 108.031 156.549 106.617 156.549 104.797C156.549 103.672 156.208 102.702 155.527 101.888C154.847 101.08 153.996 100.402 152.975 99.8526C151.953 99.3098 150.514 98.6413 148.658 97.847C146.275 96.8541 144.335 95.9109 142.837 95.0173C141.333 94.1237 140.049 92.9058 138.984 91.3635C137.914 89.8278 137.378 87.9182 137.378 85.6346C137.378 83.2517 137.976 81.1335 139.17 79.2801C140.358 77.4268 142.076 75.9871 144.322 74.9611C146.563 73.9351 149.199 73.4221 152.232 73.4221C154.491 73.4221 156.564 73.7763 158.452 74.4845C160.339 75.1994 161.85 76.2849 162.982 77.7412C164.108 79.1974 164.672 80.9846 164.672 83.1027C164.672 85.1878 164.378 86.7598 163.79 87.8189C163.202 88.878 162.335 89.4075 161.19 89.4075C160.386 89.4075 159.714 89.1427 159.176 88.6132C158.631 88.0837 158.359 87.4548 158.359 86.7267C158.359 86.0979 158.405 85.5187 158.498 84.9892C158.591 83.9963 158.637 83.3675 158.637 83.1027C158.637 81.7127 158.003 80.6536 156.734 79.9255C155.466 79.1974 153.887 78.8333 152 78.8333C149.339 78.8333 147.305 79.3529 145.901 80.3922C144.489 81.438 143.784 82.9041 143.784 84.7906C143.784 86.0483 144.149 87.1239 144.879 88.0175C145.604 88.9111 146.507 89.6557 147.59 90.2515C148.673 90.8472 150.19 91.5587 152.139 92.3861C154.491 93.4121 156.378 94.3388 157.802 95.1662C159.225 95.9936 160.442 97.1189 161.45 98.542C162.453 99.9651 162.954 101.719 162.954 103.804C162.954 107.71 161.571 110.711 158.805 112.81C156.032 114.915 152.325 115.967 147.683 115.967ZM187.138 104.499C187.54 104.499 187.855 104.698 188.084 105.095C188.32 105.492 188.437 106.038 188.437 106.733C188.437 108.057 188.143 109.083 187.555 109.811C186.225 111.565 184.77 113.005 183.192 114.13C181.614 115.255 179.804 115.818 177.761 115.818C171.449 115.818 168.292 111.069 168.292 101.57C168.292 100.114 168.339 98.6413 168.431 97.152H166.621C165.693 97.152 165.065 96.9699 164.737 96.6059C164.415 96.2418 164.254 95.6626 164.254 94.8683C164.254 93.015 164.95 92.0883 166.343 92.0883H168.988C169.515 88.4477 170.319 85.1216 171.402 82.1098C172.485 79.0981 173.791 76.6986 175.32 74.9115C176.855 73.1243 178.504 72.2307 180.268 72.2307C181.567 72.2307 182.589 72.843 183.331 74.0675C184.074 75.2921 184.445 76.831 184.445 78.6844C184.445 83.8143 182.434 88.2822 178.411 92.0883H183.61C184.105 92.0883 184.461 92.2041 184.677 92.4358C184.894 92.6675 185.002 93.0977 185.002 93.7265C185.002 96.0102 183.254 97.152 179.757 97.152H174.094C174.032 98.8068 174.001 100.098 174.001 101.024C174.001 104.466 174.379 106.882 175.134 108.272C175.895 109.662 177.096 110.357 178.736 110.357C180.067 110.357 181.243 109.927 182.264 109.067C183.285 108.206 184.492 106.915 185.884 105.194C186.256 104.731 186.673 104.499 187.138 104.499ZM179.015 76.9965C178.55 76.9965 178.031 77.6154 177.455 78.8532C176.886 80.0976 176.344 81.8186 175.83 84.0162C175.323 86.2204 174.899 88.6628 174.559 91.3436C176.384 89.6557 177.752 87.7593 178.662 85.6544C179.578 83.5561 180.036 81.6465 180.036 79.9255C180.036 77.9728 179.695 76.9965 179.015 76.9965ZM189.412 115.818C188.019 115.818 186.881 115.13 185.996 113.753C185.117 112.383 184.677 110.672 184.677 108.62C184.677 106.138 184.832 103.861 185.142 101.789C185.451 99.7235 185.962 97.5326 186.673 95.2158C186.983 94.223 187.416 93.5114 187.973 93.0812C188.53 92.6509 189.412 92.4358 190.619 92.4358C191.3 92.4358 191.77 92.5516 192.03 92.7833C192.296 93.015 192.429 93.3625 192.429 93.8258C192.429 94.0906 192.259 94.9842 191.919 96.5066C191.609 97.7311 191.362 98.8399 191.176 99.8327C190.557 103.308 190.247 105.625 190.247 106.783C190.247 107.478 190.325 107.964 190.48 108.242C190.634 108.527 190.882 108.669 191.222 108.669C191.686 108.669 192.265 108.173 192.958 107.18C193.658 106.187 194.4 104.681 195.186 102.662C195.978 100.644 196.746 98.1614 197.489 95.2158C197.736 94.223 198.114 93.5114 198.621 93.0812C199.135 92.6509 199.902 92.4358 200.923 92.4358C201.635 92.4358 202.13 92.5251 202.409 92.7039C202.687 92.8892 202.827 93.2301 202.827 93.7265C202.827 94.5539 202.44 96.821 201.666 100.528C200.8 104.764 200.366 107.379 200.366 108.372C200.366 109 200.49 109.487 200.738 109.831C200.985 110.182 201.31 110.357 201.713 110.357C202.331 110.357 203.065 109.95 203.913 109.136C204.767 108.328 205.906 107.015 207.329 105.194C207.7 104.731 208.118 104.499 208.582 104.499C208.985 104.499 209.3 104.698 209.529 105.095C209.764 105.492 209.882 106.038 209.882 106.733C209.882 108.057 209.588 109.083 209 109.811C207.669 111.565 206.237 113.005 204.702 114.13C203.173 115.255 201.434 115.818 199.484 115.818C197.999 115.818 196.907 115.206 196.207 113.981C195.514 112.757 195.168 111.036 195.168 108.818C194.642 111.069 193.853 112.796 192.8 114.001C191.748 115.212 190.619 115.818 189.412 115.818ZM224.169 101.67C225.036 101.67 225.469 102.365 225.469 103.755C225.469 106.369 223.55 107.676 219.713 107.676C218.97 107.676 217.903 107.528 216.51 107.23C216.913 109.282 217.247 111.555 217.513 114.051C217.773 116.553 217.903 118.615 217.903 120.236C217.903 123.811 217.361 126.541 216.278 128.428C215.195 130.314 213.772 131.257 212.008 131.257C209.78 131.257 208.195 129.569 207.255 126.194C206.308 122.818 205.834 117.721 205.834 110.903C205.834 104.549 206.478 98.1018 207.765 91.5621C209.046 85.0289 210.81 79.6177 213.057 75.3285C215.297 71.0459 217.764 68.9045 220.456 68.9045C221.91 68.9045 223.049 69.5996 223.872 70.9896C224.689 72.3796 225.097 74.2495 225.097 76.5994C225.097 84.3769 220.75 92.8495 212.054 102.017C211.745 105.26 211.59 108.107 211.59 110.556C211.59 113.965 211.698 117.466 211.915 121.061C212.132 124.648 212.487 126.442 212.983 126.442C213.911 126.442 214.375 124.721 214.375 121.279C214.375 118.697 214.214 116.199 213.892 113.783C213.564 111.367 213.122 108.818 212.565 106.138C212.534 105.707 212.667 105.161 212.964 104.499C213.255 103.837 213.617 103.258 214.05 102.762C214.483 102.265 214.87 102.017 215.211 102.017C215.83 102.017 216.572 102.05 217.439 102.116C217.717 102.149 218.042 102.166 218.413 102.166C219.651 102.166 221.028 102.05 222.545 101.819C222.792 101.785 223.055 101.752 223.334 101.719C223.612 101.686 223.891 101.67 224.169 101.67ZM219.481 73.8193C218.924 73.8193 218.237 74.8287 217.42 76.8476C216.597 78.8664 215.783 81.5373 214.979 84.8601C214.174 88.1896 213.478 91.7077 212.89 95.4144C215.365 92.4027 217.268 89.2652 218.599 86.0019C219.93 82.7453 220.61 79.6938 220.641 76.8476C220.641 74.8287 220.255 73.8193 219.481 73.8193ZM240.462 101.67C241.328 101.67 241.761 102.365 241.761 103.755C241.761 106.369 239.843 107.676 236.005 107.676C235.263 107.676 234.195 107.528 232.803 107.23C233.205 109.282 233.539 111.555 233.805 114.051C234.065 116.553 234.195 118.615 234.195 120.236C234.195 123.811 233.654 126.541 232.571 128.428C231.488 130.314 230.064 131.257 228.3 131.257C226.072 131.257 224.488 129.569 223.547 126.194C222.6 122.818 222.127 117.721 222.127 110.903C222.127 104.549 222.77 98.1018 224.058 91.5621C225.339 85.0289 227.103 79.6177 229.349 75.3285C231.59 71.0459 234.056 68.9045 236.748 68.9045C238.203 68.9045 239.341 69.5996 240.164 70.9896C240.981 72.3796 241.39 74.2495 241.39 76.5994C241.39 84.3769 237.042 92.8495 228.347 102.017C228.037 105.26 227.882 108.107 227.882 110.556C227.882 113.965 227.991 117.466 228.207 121.061C228.424 124.648 228.78 126.442 229.275 126.442C230.203 126.442 230.668 124.721 230.668 121.279C230.668 118.697 230.507 116.199 230.185 113.783C229.857 111.367 229.414 108.818 228.857 106.138C228.826 105.707 228.959 105.161 229.256 104.499C229.547 103.837 229.909 103.258 230.343 102.762C230.776 102.265 231.163 102.017 231.503 102.017C232.122 102.017 232.865 102.05 233.731 102.116C234.01 102.149 234.334 102.166 234.706 102.166C235.944 102.166 237.321 102.05 238.837 101.819C239.084 101.785 239.348 101.752 239.626 101.719C239.905 101.686 240.183 101.67 240.462 101.67ZM235.773 73.8193C235.216 73.8193 234.529 74.8287 233.712 76.8476C232.889 78.8664 232.076 81.5373 231.271 84.8601C230.466 88.1896 229.77 91.7077 229.182 95.4144C231.658 92.4027 233.561 89.2652 234.891 86.0019C236.222 82.7453 236.903 79.6938 236.934 76.8476C236.934 74.8287 236.547 73.8193 235.773 73.8193ZM250.58 116.91C248.971 116.91 247.74 116.513 246.886 115.719C246.038 114.925 245.614 114.031 245.614 113.038C245.614 112.178 245.908 111.433 246.496 110.804C247.084 110.175 247.95 109.861 249.095 109.861C249.497 109.861 249.968 109.901 250.506 109.98C251.051 110.066 251.462 110.126 251.741 110.159C251.71 109.298 251.53 108.487 251.202 107.726C250.881 106.965 250.472 106.227 249.977 105.512C249.482 104.804 249.018 104.185 248.585 103.655C247.625 105.608 246.672 107.23 245.725 108.52C244.785 109.811 243.757 111.036 242.643 112.194C242.086 112.79 241.498 113.088 240.879 113.088C240.384 113.088 239.982 112.896 239.672 112.512C239.363 112.135 239.208 111.665 239.208 111.102C239.208 110.44 239.425 109.828 239.858 109.265L240.462 108.471C242.163 106.22 243.448 104.367 244.314 102.911C244.84 101.951 245.459 100.667 246.171 99.0583C246.883 97.4564 247.579 95.795 248.26 94.074C248.848 92.6178 250.07 91.8897 251.927 91.8897C252.793 91.8897 253.396 91.9724 253.737 92.1379C254.077 92.3034 254.247 92.5682 254.247 92.9322C254.247 93.1308 254.186 93.4452 254.062 93.8755C253.938 94.3057 253.768 94.736 253.551 95.1662C252.994 96.3577 252.716 97.3671 252.716 98.1945C252.716 98.6909 252.877 99.237 253.198 99.8327C253.526 100.428 254.031 101.173 254.712 102.067C255.702 103.457 256.451 104.638 256.958 105.611C257.472 106.591 257.729 107.66 257.729 108.818C257.729 109.149 257.698 109.613 257.636 110.208C259.152 109.58 260.931 107.908 262.974 105.194C263.345 104.731 263.763 104.499 264.227 104.499C264.629 104.499 264.945 104.698 265.174 105.095C265.409 105.492 265.527 106.038 265.527 106.733C265.527 107.991 265.233 109.017 264.645 109.811C263.098 111.863 261.618 113.26 260.207 114.001C258.802 114.749 257.063 115.156 254.99 115.222C253.752 116.348 252.282 116.91 250.58 116.91Z" fill="black" stroke="black" stroke-width="32.492" stroke-linejoin="round"/>
</g>
</g>
</g>
</g>
</g>
</g>
</g>
</mask>
<g mask="url(#mask0_1_5)">
<g clip-path="url(#clip17_1_5)">
<path d="M190.7 199V146.538H201V137H98V146.538H108.3V199H118.6V146.538H180.4V199H190.7Z" fill="#C9A07A"/>
<path d="M67.3127 171.777H87.9391V199.352H98.2523V160.747H67.3127V116.626H56.9996V199.352H67.3127V171.777Z" fill="#C9A07A"/>
<path d="M144.662 0.809692V31.6147L116.742 61.4755H144.662C144.662 64.522 146.97 66.9905 149.818 66.9905C152.667 66.9905 154.975 64.522 154.975 61.4755H182.895L154.975 31.6147V0.809692H144.662ZM157.994 50.4453H141.64L149.818 41.7006L157.994 50.4453Z" fill="#C9A07A"/>
<path d="M232.324 160.747H201.384V199.352H211.697V171.777H232.324V199.352H242.637V116.626H232.324V160.747Z" fill="#C9A07A"/>
</g>
</g>
</g>
</g>
</g>
</g>
<defs>
<clipPath id="clip0_1_5">
<rect width="300" height="200" fill="white"/>
</clipPath>
<clipPath id="clip1_1_5">
<rect width="300" height="200" fill="white" transform="translate(-0.181824 0.0809937)"/>
</clipPath>
<clipPath id="clip2_1_5">
<rect width="299.442" height="200.162" fill="white" transform="translate(0.0970459)"/>
</clipPath>
<clipPath id="clip3_1_5">
<rect width="299.442" height="200.162" fill="white" transform="translate(0.0970459)"/>
</clipPath>
<clipPath id="clip4_1_5">
<rect width="239.554" height="70.2959" fill="white" transform="translate(30.0413 64.933)"/>
</clipPath>
<clipPath id="clip5_1_5">
<rect width="239.554" height="70.2959" fill="white" transform="translate(30.0413 64.933)"/>
</clipPath>
<clipPath id="clip6_1_5">
<rect width="239.554" height="70.2959" fill="white" transform="translate(30.0413 64.933)"/>
</clipPath>
<clipPath id="clip7_1_5">
<rect width="239.554" height="70.2959" fill="white" transform="translate(30.0413 64.933)"/>
</clipPath>
<clipPath id="clip8_1_5">
<rect width="239.554" height="70.2959" fill="white" transform="translate(30.0413 64.933)"/>
</clipPath>
<clipPath id="clip9_1_5">
<rect width="239.554" height="70.2959" fill="white" transform="translate(30.0413 64.933)"/>
</clipPath>
<clipPath id="clip10_1_5">
<rect width="239.554" height="70.2959" fill="white" transform="translate(30.0413 64.933)"/>
</clipPath>
<clipPath id="clip11_1_5">
<rect width="239.554" height="70.2959" fill="white" transform="translate(30.0413 64.933)"/>
</clipPath>
<clipPath id="clip12_1_5">
<rect width="239.554" height="70.2959" fill="white" transform="translate(30.0413 64.933)"/>
</clipPath>
<clipPath id="clip13_1_5">
<rect width="239.554" height="70.2959" fill="white" transform="translate(30.0413 64.933)"/>
</clipPath>
<clipPath id="clip14_1_5">
<rect width="239.554" height="70.2959" fill="white" transform="translate(30.0413 64.933)"/>
</clipPath>
<clipPath id="clip15_1_5">
<rect width="239.554" height="70.2959" fill="white" transform="translate(30.0413 64.933)"/>
</clipPath>
<clipPath id="clip16_1_5">
<rect width="239.554" height="70.2959" fill="white" transform="translate(30.0413 64.933)"/>
</clipPath>
<clipPath id="clip17_1_5">
<rect width="185.637" height="198.543" fill="white" transform="translate(56.9996 0.809692)"/>
</clipPath>
</defs>
</svg>
